<?xml version="1.0" standalone="no"?>
<!DOCTYPE svg PUBLIC "-//W3C//DTD SVG 20010904//EN"
 "http://www.w3.org/TR/2001/REC-SVG-20010904/DTD/svg10.dtd">
<svg version="1.0" xmlns="http://www.w3.org/2000/svg"
 width="200.000000pt" height="200.000000pt" viewBox="0 0 200.000000 200.000000"
 preserveAspectRatio="xMidYMid meet">
<metadata>
Created by potrace 1.10, written by Peter Selinger 2001-2011
</metadata>
<g transform="translate(0.000000,200.000000) scale(0.100000,-0.100000)"
fill="#000000" stroke="none">
<path d="M845 1900 c-188 -17 -363 -61 -480 -123 -80 -42 -167 -130 -183 -183
-17 -58 -17 -1129 0 -1186 6 -22 32 -62 56 -89 224 -250 998 -302 1397 -95 79
41 170 130 184 182 16 58 15 1133 -1 1188 -16 53 -104 141 -183 183 -182 95
-518 148 -790 123z m439 -80 c208 -35 351 -96 431 -181 59 -63 59 -85 -2 -150
-82 -87 -261 -158 -477 -188 -100 -14 -372 -14 -472 0 -216 30 -395 101 -477
188 -53 57 -58 84 -24 127 38 50 70 73 152 113 158 78 322 109 577 110 133 1
204 -4 292 -19z m-917 -468 c337 -169 929 -169 1266 0 32 16 75 45 97 64 l40
36 0 -123 c-1 -180 -29 -228 -178 -303 -161 -81 -318 -110 -592 -110 -274 0
-431 29 -592 110 -149 75 -177 123 -178 303 l0 123 40 -36 c22 -19 65 -48 97
-64z m8 -380 c75 -37 195 -75 311 -99 127 -25 501 -25 628 0 181 37 329 95
414 164 l42 34 0 -113 c0 -148 -8 -174 -73 -235 -283 -267 -1221 -246 -1434
34 -27 35 -28 41 -31 176 l-4 140 44 -36 c24 -19 70 -48 103 -65z m1390 -521
c-14 -92 -150 -190 -335 -240 -250 -68 -611 -68 -859 -1 -168 47 -309 139
-331 219 -5 20 -10 87 -10 148 l0 113 60 -44 c98 -73 247 -125 445 -158 120
-19 436 -16 560 6 189 34 376 109 441 177 l29 30 3 -103 c2 -57 0 -123 -3
-147z"/>
<path d="M390 1200 c-16 -16 -18 -25 -10 -40 12 -22 40 -26 58 -8 18 18 14 46
-8 58 -15 8 -24 6 -40 -10z"/>
<path d="M381 822 c-20 -38 31 -71 59 -37 6 8 9 23 5 35 -8 25 -51 27 -64 2z"/>
<path d="M381 432 c-13 -25 5 -52 34 -52 15 0 26 7 30 20 13 41 -44 70 -64 32z"/>
</g>
</svg>
