<?xml version="1.0" standalone="no"?>
<!DOCTYPE svg PUBLIC "-//W3C//DTD SVG 20010904//EN"
 "http://www.w3.org/TR/2001/REC-SVG-20010904/DTD/svg10.dtd">
<svg version="1.0" xmlns="http://www.w3.org/2000/svg"
 width="300.000000pt" height="300.000000pt" viewBox="0 0 300.000000 300.000000"
 preserveAspectRatio="xMidYMid meet">
<metadata>
Created by potrace 1.10, written by Peter Selinger 2001-2011
</metadata>
<g transform="translate(0.000000,300.000000) scale(0.100000,-0.100000)"
fill="#000000" stroke="none">
<path d="M279 2967 c-116 -48 -197 -129 -245 -245 -13 -31 -23 -77 -23 -102 0
-44 0 -44 14 -20 8 14 22 48 31 75 33 98 115 195 199 237 17 9 53 23 81 32 28
9 60 23 70 31 17 13 15 14 -26 14 -25 0 -70 -10 -101 -22z"/>
<path d="M463 2983 c4 -6 43 -24 87 -39 74 -27 99 -42 204 -127 40 -33 47 -31
121 33 52 45 118 81 183 100 23 8 48 20 55 28 10 13 5 15 -44 9 -77 -7 -160
-49 -222 -110 l-52 -52 -46 47 c-62 62 -156 109 -232 116 -40 3 -58 2 -54 -5z"/>
<path d="M1180 2976 c14 -8 53 -25 87 -36 63 -21 118 -56 186 -117 20 -18 41
-33 47 -33 5 0 31 19 58 43 64 57 103 80 187 112 94 35 105 48 35 43 -75 -6
-159 -47 -225 -109 l-55 -52 -55 52 c-69 66 -150 104 -230 108 -57 4 -59 3
-35 -11z"/>
<path d="M1884 2982 c3 -5 37 -22 75 -36 70 -27 124 -60 199 -121 24 -19 47
-35 51 -35 4 0 34 23 65 50 62 55 121 87 203 114 77 25 79 40 6 34 -76 -7
-170 -54 -232 -116 l-46 -47 -52 52 c-28 28 -77 63 -109 78 -59 28 -173 47
-160 27z"/>
<path d="M2594 2976 c10 -9 42 -23 70 -32 28 -9 65 -23 81 -32 87 -43 167
-140 200 -242 10 -30 24 -64 32 -75 14 -18 14 -15 11 37 -13 168 -189 344
-356 355 -52 4 -55 3 -38 -11z"/>
<path d="M330 2843 c-63 -23 -151 -113 -173 -177 -21 -63 -22 -149 -1 -210 22
-64 100 -148 166 -176 192 -85 418 61 418 269 0 86 -24 153 -78 212 -62 69
-128 99 -216 98 -39 0 -91 -8 -116 -16z m225 -47 c94 -43 148 -128 148 -236 0
-77 -17 -122 -68 -178 -79 -88 -207 -113 -311 -59 -155 79 -193 280 -80 414
68 81 208 107 311 59z"/>
<path d="M1047 2846 c-93 -34 -163 -111 -192 -210 -20 -66 -19 -91 5 -170 39
-125 153 -209 285 -210 261 -2 400 308 226 506 -56 63 -119 92 -211 95 -46 2
-89 -2 -113 -11z m209 -45 c51 -23 104 -75 130 -127 14 -29 19 -60 19 -119 0
-70 -4 -86 -28 -128 -35 -58 -93 -102 -164 -123 -131 -38 -278 44 -317 177
-20 66 -20 92 0 159 19 63 98 149 154 167 57 18 160 15 206 -6z"/>
<path d="M1743 2844 c-57 -21 -123 -81 -158 -145 -26 -48 -30 -64 -30 -139 0
-73 4 -92 27 -136 26 -49 85 -111 128 -134 156 -83 342 -17 418 149 70 153 -7
342 -164 401 -65 24 -159 25 -221 4z m201 -36 c61 -18 140 -101 160 -168 20
-67 20 -93 0 -159 -39 -133 -186 -215 -317 -177 -71 21 -129 65 -164 123 -24
42 -28 58 -28 128 0 59 5 90 19 119 26 52 79 104 130 127 48 22 139 25 200 7z"/>
<path d="M2470 2851 c-76 -24 -156 -97 -191 -174 -28 -63 -26 -177 5 -243 70
-150 247 -220 394 -155 66 30 144 113 166 177 48 142 -18 307 -151 374 -51 26
-172 38 -223 21z m195 -50 c100 -45 155 -131 155 -240 -1 -154 -110 -264 -260
-264 -77 0 -122 17 -178 68 -59 53 -86 115 -86 195 1 109 57 195 158 241 54
25 157 25 211 0z"/>
<path d="M12 2482 c7 -75 55 -170 116 -231 l47 -46 -50 -50 c-61 -62 -105
-149 -112 -223 -8 -73 9 -62 38 26 24 73 41 101 106 177 24 27 43 59 43 71 0
12 -20 44 -45 72 -47 52 -80 110 -115 205 -12 31 -24 57 -27 57 -3 0 -3 -26
-1 -58z"/>
<path d="M2973 2519 c-7 -13 -22 -51 -34 -84 -23 -64 -62 -127 -99 -160 -12
-11 -28 -32 -36 -46 -12 -25 -11 -30 16 -67 16 -22 34 -43 40 -47 19 -12 56
-78 84 -152 36 -94 51 -104 43 -31 -7 74 -51 161 -113 224 l-50 52 31 25 c69
55 139 196 133 270 -3 39 -3 40 -15 16z"/>
<path d="M726 2275 c-26 -24 -46 -53 -46 -65 0 -29 87 -120 115 -120 25 0 115
90 115 115 0 26 -90 115 -115 115 -14 0 -42 -18 -69 -45z m111 -112 l-43 -44
-45 43 -44 44 45 44 44 45 44 -44 43 -45 -44 -43z"/>
<path d="M1429 2271 c-27 -26 -49 -55 -49 -63 0 -25 93 -118 118 -118 26 0 87
52 108 92 14 26 13 31 -6 58 -30 42 -78 80 -102 80 -12 0 -43 -22 -69 -49z
m116 -23 l43 -42 -44 -43 -44 -42 -43 43 -44 43 41 41 c23 23 42 41 44 42 2 0
23 -19 47 -42z"/>
<path d="M2137 2273 c-26 -26 -47 -55 -47 -65 0 -27 88 -118 114 -118 28 0
116 89 116 117 0 30 -83 113 -113 113 -14 0 -41 -18 -70 -47z m114 -111 l-45
-43 -43 44 -44 43 43 45 43 44 45 -45 45 -44 -44 -44z"/>
<path d="M375 2151 c-84 -21 -167 -86 -206 -163 -15 -29 -24 -67 -27 -119 -4
-66 -1 -84 20 -131 54 -116 158 -188 273 -188 92 0 151 24 216 89 66 66 89
124 89 221 0 189 -184 335 -365 291z m144 -47 c133 -39 215 -186 177 -317 -21
-71 -65 -129 -123 -164 -42 -24 -58 -28 -128 -28 -91 0 -136 17 -193 73 -48
49 -72 106 -72 176 0 89 17 134 76 193 77 77 159 98 263 67z"/>
<path d="M1052 2142 c-211 -76 -277 -337 -124 -495 64 -66 114 -90 203 -95 74
-4 84 -2 145 28 193 95 232 343 77 492 -78 76 -203 105 -301 70z m174 -37
c183 -55 244 -288 112 -431 -135 -147 -386 -90 -443 100 -18 61 -18 109 -1
159 30 82 91 143 173 173 50 17 98 17 159 -1z"/>
<path d="M1775 2147 c-68 -23 -101 -44 -149 -98 -75 -83 -96 -195 -56 -302 74
-197 320 -262 475 -125 56 50 91 107 106 177 28 131 -50 276 -177 332 -56 25
-149 32 -199 16z m192 -56 c156 -79 199 -278 88 -408 -160 -187 -464 -74 -465
173 0 190 209 321 377 235z"/>
<path d="M2464 2142 c-74 -26 -138 -83 -174 -155 -41 -82 -43 -182 -4 -262 72
-154 253 -219 402 -145 71 36 115 83 150 158 21 47 24 65 20 131 -5 88 -26
136 -85 197 -79 81 -208 113 -309 76z m172 -37 c185 -55 248 -301 112 -437
-57 -56 -102 -73 -193 -73 -70 0 -86 4 -128 28 -58 35 -102 93 -123 164 -37
128 38 269 168 314 65 22 100 23 164 4z"/>
<path d="M12 1779 c6 -74 47 -159 109 -224 l52 -55 -52 -55 c-62 -66 -103
-150 -109 -225 -5 -67 7 -59 37 23 31 85 48 115 102 180 27 32 49 68 49 79 0
11 -21 43 -46 71 -50 56 -82 113 -108 194 -24 74 -40 79 -34 12z"/>
<path d="M2972 1813 c-5 -10 -17 -41 -26 -70 -19 -58 -80 -156 -120 -192 -33
-31 -34 -70 -1 -101 43 -41 94 -123 120 -194 34 -95 48 -107 43 -36 -6 75 -47
159 -109 225 l-52 55 52 55 c29 30 64 81 78 112 34 75 48 210 15 146z"/>
<path d="M729 1571 c-30 -29 -49 -57 -49 -71 0 -28 89 -120 115 -120 25 0 115
95 115 120 0 25 -92 120 -116 120 -9 0 -39 -22 -65 -49z m107 -114 l-43 -44
-42 44 -43 43 43 44 43 44 43 -44 42 -44 -43 -43z"/>
<path d="M1461 1595 c-52 -38 -85 -89 -73 -112 14 -26 99 -103 113 -103 16 0
119 104 119 120 0 15 -102 120 -117 120 -5 0 -24 -11 -42 -25z m81 -50 l45
-45 -43 -44 -44 -43 -44 43 -44 44 42 44 c22 24 42 44 42 45 1 0 22 -19 46
-44z"/>
<path d="M2140 1570 c-30 -29 -50 -58 -50 -71 0 -26 89 -119 115 -119 26 0
115 93 115 120 0 27 -88 120 -114 120 -9 0 -39 -22 -66 -50z m110 -113 l-43
-44 -43 44 -44 43 43 43 42 43 43 -43 44 -43 -42 -43z"/>
<path d="M347 1436 c-87 -32 -163 -107 -194 -189 -19 -51 -15 -150 7 -210 25
-66 89 -135 156 -168 66 -32 177 -34 245 -2 61 28 125 92 155 156 29 63 32
159 8 230 -20 60 -88 136 -150 167 -60 30 -169 38 -227 16z m227 -60 c117 -69
162 -213 107 -341 -36 -82 -150 -155 -241 -155 -64 0 -132 31 -184 83 -58 58
-76 104 -76 190 0 154 116 261 276 253 56 -2 82 -9 118 -30z"/>
<path d="M1048 1434 c-29 -9 -67 -33 -101 -64 -163 -149 -127 -400 71 -497 80
-39 184 -40 257 -1 191 101 233 336 86 487 -80 82 -198 110 -313 75z m207 -48
c178 -83 209 -320 58 -446 -156 -128 -402 -29 -429 174 -28 200 187 358 371
272z"/>
<path d="M1759 1436 c-158 -56 -242 -219 -195 -380 20 -67 89 -147 160 -183
76 -39 179 -39 258 1 203 103 234 354 62 505 -74 65 -195 89 -285 57z m209
-52 c165 -82 200 -294 71 -423 -100 -100 -263 -104 -367 -8 -72 66 -102 192
-67 284 56 146 227 215 363 147z"/>
<path d="M2435 1422 c-72 -35 -137 -103 -159 -169 -9 -26 -16 -77 -16 -113 0
-215 233 -363 425 -270 57 28 118 89 147 148 33 66 33 198 0 259 -57 108 -143
164 -262 170 -67 4 -82 1 -135 -25z m239 -37 c22 -10 55 -34 74 -53 104 -105
96 -287 -19 -385 -43 -37 -118 -67 -169 -67 -97 0 -213 79 -247 168 -52 137
19 298 153 348 52 19 158 13 208 -11z"/>
<path d="M13 1069 c7 -75 50 -161 112 -224 l50 -50 -47 -46 c-61 -61 -109
-156 -116 -231 -2 -32 -2 -58 1 -58 3 0 18 33 33 73 32 83 62 134 116 196 21
24 38 54 38 66 0 12 -16 40 -36 61 -55 59 -86 110 -111 182 -32 91 -47 103
-40 31z"/>
<path d="M2969 1095 c-8 -16 -26 -58 -39 -92 -14 -36 -46 -88 -77 -125 -31
-36 -53 -72 -53 -85 0 -13 17 -42 38 -66 56 -62 76 -94 106 -172 38 -102 48
-112 44 -44 -6 76 -55 176 -116 238 l-49 49 32 25 c70 56 140 197 133 268 l-3
34 -16 -30z"/>
<path d="M727 863 c-29 -29 -47 -56 -47 -70 0 -32 82 -113 113 -113 28 0 117
89 117 116 0 23 -93 114 -117 114 -11 0 -40 -21 -66 -47z m111 -26 l43 -44
-43 -44 -44 -44 -44 45 -45 45 40 41 c22 23 42 42 45 43 3 0 25 -18 48 -42z"/>
<path d="M1445 879 c-20 -18 -43 -45 -51 -61 -17 -33 -16 -35 45 -100 50 -54
77 -51 135 13 25 28 46 57 46 65 0 23 -94 114 -118 114 -12 0 -37 -14 -57 -31z
m99 -42 l44 -43 -44 -43 -44 -43 -43 43 -44 42 41 42 c23 24 42 44 43 44 1 1
22 -18 47 -42z"/>
<path d="M2139 861 c-27 -26 -49 -56 -49 -66 0 -10 24 -43 54 -72 l55 -55 31
19 c40 22 90 84 90 110 0 24 -90 113 -114 113 -10 0 -41 -22 -67 -49z m112
-23 l44 -42 -45 -46 -44 -45 -44 44 -43 44 43 44 c23 24 43 43 43 43 1 0 21
-19 46 -42z"/>
<path d="M377 739 c-83 -19 -170 -89 -213 -170 -26 -50 -30 -165 -9 -228 21
-65 104 -153 172 -183 110 -49 245 -18 331 76 57 64 82 129 82 217 0 183 -183
328 -363 288z m169 -54 c48 -20 110 -81 135 -133 28 -57 30 -157 5 -214 -60
-138 -229 -199 -364 -132 -93 46 -141 127 -142 234 0 193 189 319 366 245z"/>
<path d="M1072 735 c-108 -30 -185 -108 -217 -220 -21 -69 -15 -126 19 -200
106 -232 425 -238 541 -10 51 102 45 208 -18 301 -75 112 -204 163 -325 129z
m198 -63 c157 -79 189 -293 62 -420 -105 -104 -287 -96 -385 19 -37 43 -67
118 -67 169 0 56 31 132 73 177 88 96 199 115 317 55z"/>
<path d="M1793 740 c-86 -17 -167 -81 -211 -164 -23 -44 -27 -63 -26 -136 0
-93 16 -138 75 -204 41 -47 84 -72 155 -91 134 -35 280 38 340 169 33 75 39
133 19 201 -32 113 -111 191 -221 220 -64 16 -70 17 -131 5z m172 -59 c82 -37
155 -150 155 -241 0 -64 -31 -132 -83 -184 -59 -59 -104 -76 -193 -76 -70 0
-127 24 -176 72 -56 57 -73 102 -73 193 0 69 4 86 28 127 69 119 215 165 342
109z"/>
<path d="M2497 739 c-85 -20 -170 -86 -209 -163 -32 -61 -37 -188 -10 -249 25
-56 94 -133 142 -157 160 -81 341 -13 416 157 48 107 26 226 -57 317 -73 81
-185 118 -282 95z m179 -61 c88 -41 144 -133 144 -238 0 -152 -108 -260 -259
-260 -261 1 -364 317 -156 476 74 56 181 65 271 22z"/>
<path d="M13 368 c5 -75 54 -174 117 -238 63 -62 163 -112 237 -118 69 -6 65
9 -10 34 -155 50 -252 138 -297 268 -10 29 -25 66 -34 82 l-17 29 4 -57z"/>
<path d="M2974 405 c-6 -11 -19 -45 -29 -75 -33 -102 -112 -198 -202 -244 -17
-8 -58 -25 -90 -37 -78 -29 -87 -39 -32 -39 137 1 303 137 354 289 19 58 18
140 -1 106z"/>
<path d="M764 191 c-16 -10 -35 -26 -43 -35 -26 -31 -94 -72 -166 -100 -103
-39 -112 -48 -39 -43 77 6 170 52 233 115 l46 47 50 -50 c66 -65 150 -106 229
-111 l61 -4 -35 16 c-19 10 -66 31 -105 49 -38 17 -92 50 -118 73 -70 60 -79
64 -113 43z"/>
<path d="M1443 168 c-69 -60 -127 -94 -199 -118 -84 -28 -93 -44 -23 -38 74 6
159 47 224 109 l55 52 55 -52 c65 -62 150 -103 224 -109 70 -6 61 10 -23 38
-70 23 -126 56 -201 118 -27 23 -53 42 -57 42 -4 0 -28 -19 -55 -42z"/>
<path d="M2185 198 c-11 -6 -36 -25 -55 -43 -48 -44 -103 -77 -178 -104 -83
-31 -91 -46 -20 -38 74 7 161 51 223 112 l50 50 48 -48 c59 -60 160 -109 236
-115 51 -3 54 -2 36 10 -11 8 -49 25 -85 38 -68 24 -131 62 -165 100 -32 35
-67 50 -90 38z"/>
</g>
</svg>
