<?xml version="1.0" standalone="no"?>
<!DOCTYPE svg PUBLIC "-//W3C//DTD SVG 20010904//EN"
 "http://www.w3.org/TR/2001/REC-SVG-20010904/DTD/svg10.dtd">
<svg version="1.0" xmlns="http://www.w3.org/2000/svg"
 width="300.000000pt" height="300.000000pt" viewBox="0 0 300.000000 300.000000"
 preserveAspectRatio="xMidYMid meet">
<metadata>
Created by potrace 1.10, written by Peter Selinger 2001-2011
</metadata>
<g transform="translate(0.000000,300.000000) scale(0.100000,-0.100000)"
fill="#000000" stroke="none">
<path d="M1164 2699 c8 -106 88 -216 225 -308 55 -37 65 -41 77 -29 13 12 3
22 -68 68 -136 89 -195 160 -225 275 l-13 50 4 -56z"/>
<path d="M1410 2723 c-75 -5 -190 -25 -196 -34 -11 -19 57 -31 201 -36 83 -3
148 -3 145 -1 -3 3 -61 8 -130 11 -69 3 -136 10 -149 15 -21 8 -17 10 34 20
67 14 360 15 390 2 20 -9 19 -10 -25 -16 -14 -2 -38 -8 -55 -14 -24 -8 -18 -9
33 -4 35 3 76 10 90 15 24 9 25 11 9 20 -9 6 -68 14 -130 19 -110 9 -126 10
-217 3z"/>
<path d="M1815 2705 c-40 -109 -104 -182 -231 -265 -74 -48 -108 -80 -85 -80
5 0 13 5 16 10 3 6 16 10 28 9 12 0 16 -3 10 -6 -7 -2 -13 -9 -13 -14 0 -31
158 94 214 170 42 57 82 159 73 183 -3 8 -7 6 -12 -7z"/>
<path d="M1570 2615 c8 -2 32 -6 53 -10 20 -3 37 -9 37 -14 0 -4 -17 -13 -37
-19 l-38 -11 48 4 c54 5 93 23 80 36 -4 4 -42 11 -83 13 -41 3 -68 4 -60 1z"/>
<path d="M1278 2603 c-10 -2 -18 -8 -18 -12 0 -12 64 -31 101 -30 33 1 33 1
-11 11 -44 10 -44 10 -20 24 l25 13 -30 -1 c-16 0 -38 -2 -47 -5z"/>
<path d="M1433 2553 c20 -2 54 -2 75 0 20 2 3 4 -38 4 -41 0 -58 -2 -37 -4z"/>
<path d="M1568 2513 c17 -2 32 -8 32 -13 0 -5 7 -7 16 -3 25 9 -4 23 -46 21
l-35 -1 33 -4z"/>
<path d="M1543 2493 c-13 -2 -23 -9 -23 -14 0 -11 50 -1 65 12 9 9 -2 10 -42
2z"/>
<path d="M1455 2480 c-16 -7 -13 -9 18 -9 20 -1 37 4 37 9 0 12 -27 12 -55 0z"/>
<path d="M1372 2299 c-78 -51 -148 -129 -181 -199 -23 -48 -26 -68 -26 -155 0
-93 2 -105 32 -165 20 -42 55 -87 95 -126 67 -66 161 -134 184 -134 29 0 12
20 -46 55 -92 56 -165 128 -199 197 -26 51 -31 73 -31 134 0 136 55 227 208
340 42 32 79 59 81 61 2 2 1 6 -2 9 -4 4 -18 -1 -32 -10 -25 -17 -26 -17 -19
9 3 14 4 25 1 25 -2 0 -32 -18 -65 -41z"/>
<path d="M1517 2328 c-16 -12 -11 -18 48 -56 100 -66 180 -146 212 -210 24
-49 28 -69 28 -142 0 -74 -4 -92 -28 -139 -36 -68 -101 -133 -201 -200 l-78
-53 38 -18 c46 -20 48 -20 146 59 121 96 173 174 191 290 13 86 -7 179 -54
252 -38 60 -128 144 -200 186 -72 43 -82 46 -102 31z"/>
<path d="M1400 2187 c-47 -16 -44 -30 9 -39 54 -9 66 -3 20 10 l-34 9 45 13
c25 6 71 10 102 8 32 -2 58 -1 58 4 0 12 -160 8 -200 -5z"/>
<path d="M1565 2155 l-50 -14 50 4 c28 2 59 4 70 4 17 1 17 3 5 11 -8 5 -17 9
-20 9 -3 -1 -27 -7 -55 -14z"/>
<path d="M1383 2100 c-118 -10 -148 -41 -53 -54 l45 -6 -35 14 -35 14 28 11
c16 6 49 11 75 11 26 0 54 5 62 10 8 5 11 9 5 8 -5 0 -47 -4 -92 -8z"/>
<path d="M1575 2100 c28 -5 73 -12 100 -16 44 -6 47 -8 25 -15 -14 -5 -56 -13
-95 -18 l-70 -10 84 5 c89 6 111 11 111 25 0 17 -37 27 -120 32 -68 5 -75 4
-35 -3z"/>
<path d="M1335 1999 c-70 -10 -112 -26 -99 -38 15 -14 84 -23 84 -11 0 5 -12
10 -27 10 -42 0 -9 17 49 25 26 4 50 11 54 16 3 5 4 8 2 8 -2 -1 -30 -5 -63
-10z"/>
<path d="M1698 1988 c62 -11 62 -17 1 -24 -61 -7 -62 -14 -3 -14 27 0 57 7 67
14 16 13 15 15 -14 25 -18 6 -48 10 -68 10 -32 -1 -30 -3 17 -11z"/>
<path d="M1575 1900 c-3 -4 24 -10 59 -12 72 -6 96 -15 75 -29 -8 -5 -27 -9
-44 -10 -26 -2 -27 -2 -6 -6 32 -6 113 17 108 31 -6 17 -183 41 -192 26z"/>
<path d="M1293 1889 c-24 -4 -51 -12 -60 -18 -16 -8 -15 -11 10 -20 16 -6 47
-11 70 -10 l42 1 -43 10 c-24 5 -42 12 -39 14 2 3 33 11 68 19 47 10 54 13 29
13 -19 0 -54 -4 -77 -9z"/>
<path d="M1448 1893 c18 -2 45 -2 60 0 15 2 0 4 -33 4 -33 0 -45 -2 -27 -4z"/>
<path d="M1293 1788 c-34 -11 -41 -22 -22 -33 13 -9 156 -19 148 -11 -5 5 -70
14 -118 16 -26 0 -2 13 51 26 53 12 53 12 13 12 -22 0 -55 -5 -72 -10z"/>
<path d="M1649 1791 c8 -5 20 -7 27 -4 6 2 15 0 19 -6 8 -14 -8 -20 -86 -30
l-64 -8 58 -2 c83 -2 159 34 111 53 -26 10 -81 7 -65 -3z"/>
<path d="M1415 1695 c-5 -2 -22 -6 -37 -9 -41 -9 -34 -22 16 -35 70 -17 233
-10 220 10 -3 5 2 6 10 3 9 -3 16 -1 16 5 0 20 -49 31 -133 30 -45 0 -86 -2
-92 -4z m183 -19 c10 -11 -5 -16 -59 -21 -96 -8 -202 16 -121 28 37 5 173 0
180 -7z"/>
<path d="M1405 1468 c-93 -65 -191 -168 -223 -235 -24 -51 -27 -70 -27 -158 0
-88 3 -107 28 -159 32 -69 135 -174 219 -224 50 -29 59 -32 80 -21 l23 12 -29
21 c-156 112 -213 172 -241 255 -24 71 -20 176 10 239 30 66 115 150 218 218
l77 52 -36 21 c-19 12 -36 21 -37 20 -1 0 -29 -19 -62 -41z"/>
<path d="M1571 1471 c-23 -6 -20 -10 40 -58 87 -69 140 -128 169 -188 21 -41
25 -65 25 -135 0 -140 -50 -218 -220 -346 -42 -31 -74 -59 -71 -61 7 -7 56 9
56 18 0 5 6 9 13 9 7 0 23 9 34 19 12 11 23 17 26 15 3 -3 8 3 11 14 4 10 18
25 31 32 14 7 25 17 25 22 0 4 8 8 17 8 9 0 14 3 10 6 -6 6 1 17 36 55 9 10
17 21 17 24 0 3 0 10 0 15 0 6 8 10 18 11 11 0 12 2 4 6 -10 4 -10 8 -1 19 6
8 17 58 24 111 7 56 13 83 15 63 1 -19 3 -42 4 -50 1 -8 -2 -20 -7 -27 -5 -7
-8 -22 -6 -35 3 -36 -22 -119 -34 -111 -6 4 -8 0 -4 -10 4 -10 -1 -22 -12 -29
-9 -7 -28 -28 -41 -45 -13 -18 -30 -33 -37 -33 -7 0 -13 -7 -13 -15 0 -8 -5
-15 -10 -15 -6 0 -21 -9 -33 -21 -12 -11 -32 -25 -44 -29 -22 -9 -51 -50 -34
-50 19 0 131 83 185 137 31 31 69 82 84 112 24 51 27 66 27 166 0 99 -3 115
-27 165 -53 109 -218 246 -277 231z"/>
<path d="M1445 1340 c3 -5 19 -7 35 -3 35 6 145 -6 135 -15 -4 -4 -39 -10 -78
-13 -71 -7 -71 -7 20 -5 100 1 139 17 89 36 -35 13 -209 14 -201 0z"/>
<path d="M1635 1245 c39 -7 72 -13 75 -14 15 -5 -33 -20 -68 -22 -23 -2 -42
-6 -42 -10 0 -16 142 11 147 28 5 14 -38 25 -117 28 l-65 3 70 -13z"/>
<path d="M1300 1211 c8 -5 40 -12 70 -15 39 -4 49 -3 33 3 -29 13 -123 23
-103 12z"/>
<path d="M1303 1148 c-52 -11 -57 -35 -10 -42 71 -11 98 -12 103 -4 3 4 -12 8
-33 9 -21 0 -47 4 -58 9 -19 7 -18 8 6 15 14 3 57 10 95 15 l69 8 -65 -1 c-36
0 -84 -5 -107 -9z"/>
<path d="M1615 1156 c6 -3 36 -7 68 -11 31 -4 57 -10 57 -14 0 -5 -33 -13 -72
-18 l-73 -10 55 -1 c59 -2 130 13 130 27 0 5 -8 12 -17 16 -19 7 -165 18 -148
11z"/>
<path d="M1321 1050 c-96 -14 -88 -44 14 -54 66 -7 52 7 -20 20 -37 6 -38 8
-15 14 14 5 39 8 57 9 17 1 35 6 38 11 7 11 4 11 -74 0z"/>
<path d="M1450 1057 c3 -2 65 -7 138 -9 123 -5 153 -10 140 -23 -3 -3 -25 -9
-49 -14 l-44 -9 41 -1 c44 -1 104 16 104 29 0 4 -8 11 -17 16 -19 8 -321 19
-313 11z"/>
<path d="M1316 951 c-16 -3 -31 -12 -34 -18 -5 -16 3 -16 26 -3 9 5 40 14 67
19 49 9 49 9 10 9 -22 0 -53 -3 -69 -7z"/>
<path d="M1675 946 c35 -10 38 -13 20 -21 -31 -13 -332 -17 -356 -4 -12 6 -23
8 -27 5 -37 -37 345 -39 415 -2 l28 14 -28 11 c-16 6 -43 11 -60 10 -32 -1
-32 -1 8 -13z"/>
<path d="M1417 850 c-21 -4 -43 -13 -50 -20 -10 -10 -8 -12 10 -7 14 3 21 1
20 -7 -3 -16 168 -20 216 -5 41 14 44 30 6 40 -32 9 -154 9 -202 -1z m193 -17
c23 -9 -55 -22 -137 -22 -56 -1 -71 2 -67 12 2 7 23 14 47 16 23 1 42 3 43 4
5 4 99 -4 114 -10z"/>
<path d="M1422 626 c-54 -29 -165 -152 -194 -211 -30 -66 -50 -185 -29 -185 6
0 11 13 11 30 0 96 83 206 232 308 l77 53 33 -17 c50 -26 147 -93 190 -132 49
-44 86 -107 110 -186 l18 -61 -4 52 c-10 110 -99 233 -237 326 l-55 38 -67
-14 c-55 -11 -65 -11 -56 0 14 16 1 16 -29 -1z"/>
<path d="M1485 519 c-26 -4 -9 -6 50 -6 88 -1 96 3 25 9 -19 2 -53 0 -75 -3z"/>
<path d="M1395 501 c-8 -14 5 -19 61 -24 27 -2 37 -2 21 0 -16 3 -25 9 -21 15
4 7 2 8 -4 4 -7 -4 -12 -2 -12 3 0 13 -37 15 -45 2z"/>
<path d="M1338 428 c-21 -6 -38 -14 -38 -19 0 -13 71 -29 125 -27 l50 1 -57 6
c-89 10 -89 22 2 40 l45 9 -45 0 c-25 0 -62 -5 -82 -10z"/>
<path d="M1625 436 c6 -2 27 -7 48 -11 52 -8 46 -22 -15 -33 -31 -6 -42 -10
-26 -11 15 0 50 4 79 10 45 10 49 13 37 26 -8 8 -41 16 -74 19 -32 2 -54 2
-49 0z"/>
<path d="M1508 383 c17 -2 47 -2 65 0 17 2 3 4 -33 4 -36 0 -50 -2 -32 -4z"/>
<path d="M1450 347 c3 -3 52 -7 110 -8 112 -3 190 -15 190 -29 0 -4 -35 -12
-77 -16 -43 -5 -67 -10 -53 -12 34 -6 190 18 190 29 0 17 -80 30 -220 36 -80
3 -143 3 -140 0z"/>
<path d="M1311 329 c-49 -9 -56 -13 -47 -28 11 -17 275 -34 311 -20 12 4 -23
8 -85 9 -120 1 -197 12 -165 23 11 3 36 9 55 12 19 3 36 8 39 11 7 7 -60 3
-108 -7z"/>
</g>
</svg>
