<?xml version="1.0" standalone="no"?>
<!DOCTYPE svg PUBLIC "-//W3C//DTD SVG 20010904//EN"
 "http://www.w3.org/TR/2001/REC-SVG-20010904/DTD/svg10.dtd">
<svg version="1.0" xmlns="http://www.w3.org/2000/svg"
 width="300.000000pt" height="300.000000pt" viewBox="0 0 300.000000 300.000000"
 preserveAspectRatio="xMidYMid meet">
<metadata>
Created by potrace 1.10, written by Peter Selinger 2001-2011
</metadata>
<g transform="translate(0.000000,300.000000) scale(0.100000,-0.100000)"
fill="#000000" stroke="none">
<path d="M2387 2803 c-4 -3 -7 -21 -7 -39 0 -31 -2 -33 -37 -36 -30 -2 -38 -7
-38 -23 0 -16 8 -21 37 -23 35 -3 37 -5 40 -40 2 -29 7 -37 23 -37 16 0 20 7
20 38 0 36 1 37 37 37 40 0 51 9 42 34 -4 11 -19 16 -45 16 -30 0 -37 3 -33
15 14 36 -16 81 -39 58z"/>
<path d="M626 2715 c-12 -31 22 -45 108 -45 87 0 115 12 102 45 -8 22 -201 22
-210 0z"/>
<path d="M984 2715 c-4 -8 -1 -22 6 -30 10 -12 46 -15 197 -15 l185 0 39 -39
39 -39 0 -378 c0 -209 3 -389 6 -401 l6 -23 -146 0 -146 0 0 185 c0 184 0 186
-25 210 -34 35 -86 34 -114 -1 -20 -25 -21 -40 -21 -210 l0 -184 -256 0 c-219
0 -260 -2 -284 -16 -40 -24 -60 -65 -60 -123 0 -44 5 -56 34 -89 l34 -37 266
-3 266 -3 0 -154 0 -155 -90 0 -90 0 0 79 c0 58 -4 82 -15 91 -12 10 -18 10
-30 0 -13 -11 -15 -72 -15 -439 0 -480 0 -480 76 -537 l37 -29 617 0 617 0 37
29 c76 57 76 57 76 537 0 367 -2 428 -15 439 -12 10 -18 10 -30 0 -11 -9 -15
-33 -15 -91 l0 -79 -122 0 -123 0 0 155 0 154 298 3 299 3 34 37 c29 33 34 45
34 89 0 58 -20 99 -60 123 -24 14 -68 16 -318 16 l-289 0 4 88 c5 94 -8 132
-41 119 -13 -5 -16 -23 -16 -107 l0 -100 -90 0 -90 0 0 394 c0 516 -17 486
271 486 144 0 179 3 189 15 7 8 10 22 6 30 -4 13 -34 15 -190 15 -196 0 -223
-5 -270 -48 -65 -61 -66 -66 -66 -499 l0 -393 -60 0 -60 0 0 402 0 401 -25 43
c-15 26 -43 54 -69 69 -42 24 -47 25 -235 25 -162 0 -193 -2 -197 -15z m126
-745 c0 -173 -1 -180 -20 -180 -19 0 -20 7 -20 180 0 173 1 180 20 180 19 0
20 -7 20 -180z m1402 -257 c12 -11 18 -30 18 -59 0 -80 79 -74 -1030 -74
-1107 0 -1030 -5 -1030 72 0 25 7 49 17 60 15 17 60 18 1011 18 912 0 997 -1
1014 -17z m-1402 -348 c0 -148 -1 -155 -20 -155 -19 0 -20 7 -20 155 0 148 1
155 20 155 19 0 20 -7 20 -155z m345 0 l0 -155 -142 0 -143 0 0 155 0 155 143
0 142 0 0 -155z m175 0 l0 -155 -60 0 -60 0 0 155 0 155 60 0 60 0 0 -155z
m240 0 l0 -155 -90 0 -90 0 0 155 0 155 90 0 90 0 0 -155z m-860 -297 c0 -67
-4 -91 -22 -125 -21 -40 -22 -45 -8 -84 19 -54 56 -82 110 -82 53 0 91 28 109
80 13 37 13 43 -7 85 -17 34 -22 63 -22 126 l0 82 143 0 142 0 -3 -174 c-3
-148 -1 -176 13 -189 8 -9 22 -14 30 -11 12 5 15 37 15 190 l0 184 60 0 60 0
2 -182 3 -183 25 0 25 0 3 183 2 182 90 0 90 0 0 -79 c0 -71 2 -81 26 -105 38
-37 101 -37 138 1 22 22 26 34 24 67 -2 31 -8 42 -22 44 -21 5 -36 -13 -36
-45 0 -12 -9 -27 -21 -34 -34 -18 -50 8 -54 85 l-3 66 124 0 124 0 0 -317 c0
-297 -1 -320 -19 -347 -38 -57 -18 -55 -651 -55 -633 0 -613 -2 -651 55 -18
27 -19 50 -19 347 l0 317 90 0 90 0 0 -82z m100 -13 c0 -82 3 -100 21 -124 25
-34 19 -64 -17 -88 -24 -15 -27 -15 -52 4 -35 26 -39 49 -13 84 18 24 21 42
21 124 0 88 1 95 20 95 19 0 20 -7 20 -95z"/>
<path d="M1340 717 c0 -109 -5 -107 227 -107 229 0 226 -1 221 106 -3 63 -5
69 -25 72 -27 4 -39 -30 -29 -83 l7 -35 -177 0 -176 0 6 43 c8 55 0 77 -30 77
-23 0 -24 -3 -24 -73z"/>
<path d="M582 1411 c-10 -6 -12 -123 -10 -522 l3 -514 28 -48 c34 -57 92 -102
160 -122 75 -22 1399 -22 1474 0 68 20 126 65 160 122 l28 48 3 516 c2 474 1
517 -14 523 -43 17 -44 10 -44 -511 0 -552 2 -531 -70 -597 -21 -19 -56 -39
-77 -45 -53 -15 -1393 -15 -1446 0 -47 13 -115 72 -134 116 -10 26 -13 135
-13 527 0 467 -1 496 -18 505 -10 5 -24 6 -30 2z"/>
</g>
</svg>
