<?xml version="1.0" standalone="no"?>
<!DOCTYPE svg PUBLIC "-//W3C//DTD SVG 20010904//EN"
 "http://www.w3.org/TR/2001/REC-SVG-20010904/DTD/svg10.dtd">
<svg version="1.0" xmlns="http://www.w3.org/2000/svg"
 width="300.000000pt" height="300.000000pt" viewBox="0 0 300.000000 300.000000"
 preserveAspectRatio="xMidYMid meet">
<metadata>
Created by potrace 1.10, written by Peter Selinger 2001-2011
</metadata>
<g transform="translate(0.000000,300.000000) scale(0.100000,-0.100000)"
fill="#000000" stroke="none">
<path d="M720 1800 l0 -1050 -301 0 -301 0 4 -187 c3 -182 4 -190 31 -245 32
-64 80 -111 146 -142 46 -21 48 -21 1201 -21 1153 0 1155 0 1201 21 66 31 114
78 146 142 l28 57 3 1238 2 1237 -1080 0 -1080 0 0 -1050z m2108 998 c9 -9 12
-288 12 -1193 0 -1307 3 -1243 -65 -1322 -19 -23 -56 -52 -83 -65 l-47 -23
-1115 -3 c-780 -2 -1131 1 -1168 9 -65 13 -127 59 -167 124 l-30 48 0 166 0
166 277 3 277 2 20 27 c21 26 21 31 21 1034 0 554 3 1014 6 1023 6 14 105 16
1028 16 782 0 1025 -3 1034 -12z"/>
<path d="M822 2747 l-22 -23 0 -981 c0 -977 0 -980 21 -1007 l20 -26 744 0
c409 0 750 -3 759 -6 14 -5 16 -27 16 -143 0 -160 9 -199 58 -253 93 -103 231
-103 324 0 20 22 41 58 47 79 7 26 11 407 11 1184 0 1145 0 1146 -21 1173
l-20 26 -958 0 -958 0 -21 -23z m1938 -1172 c0 -1239 2 -1193 -48 -1249 -25
-28 -91 -56 -135 -56 -41 0 -102 27 -129 57 -40 44 -48 86 -48 258 l0 165
-780 0 -780 0 0 990 0 990 960 0 960 0 0 -1155z"/>
<path d="M1225 2597 c-109 -37 -186 -103 -232 -202 -24 -51 -28 -73 -28 -145
0 -72 4 -94 28 -146 36 -77 104 -145 182 -181 51 -24 73 -28 145 -28 72 0 94
4 145 28 78 36 146 104 182 181 24 52 28 74 28 146 0 72 -4 94 -28 146 -57
123 -177 204 -311 211 -41 1 -88 -3 -111 -10z m179 -42 c68 -18 117 -51 166
-111 104 -129 87 -317 -39 -433 -85 -78 -234 -99 -343 -49 -75 35 -121 80
-155 154 -69 146 -11 333 126 408 86 46 153 55 245 31z"/>
<path d="M1167 2480 c-55 -35 -100 -101 -117 -172 -51 -213 179 -406 375 -314
77 35 155 122 155 172 0 12 -8 31 -17 43 -16 19 -30 21 -138 23 l-120 3 -5
121 c-3 82 -9 126 -19 138 -20 24 -62 19 -114 -14z m93 -145 l0 -145 146 0
145 0 -6 -22 c-10 -33 -50 -84 -88 -111 -98 -73 -227 -60 -310 33 -104 116
-85 266 46 361 66 48 67 47 67 -116z"/>
<path d="M1356 2488 c-25 -35 -22 -158 5 -192 19 -24 26 -26 100 -26 87 0 119
17 119 63 -1 42 -59 120 -116 153 -51 30 -88 31 -108 2z m101 -44 c38 -29 78
-79 88 -111 6 -23 5 -23 -79 -23 l-86 0 0 86 c0 84 0 85 23 79 12 -4 36 -18
54 -31z"/>
<path d="M1920 2550 l0 -60 330 0 330 0 0 60 0 60 -330 0 -330 0 0 -60z m605
0 c0 -13 -39 -15 -277 -18 -274 -2 -278 -2 -278 18 0 20 4 20 278 18 238 -3
277 -5 277 -18z"/>
<path d="M1920 2310 l0 -60 330 0 330 0 0 60 0 60 -330 0 -330 0 0 -60z m605
0 c0 -13 -39 -15 -277 -18 -274 -2 -278 -2 -278 18 0 20 4 20 278 18 238 -3
277 -5 277 -18z"/>
<path d="M1920 2070 l0 -60 180 0 180 0 0 60 0 60 -180 0 -180 0 0 -60z m305
0 c0 -12 -22 -15 -127 -18 -123 -2 -128 -2 -128 18 0 20 5 20 128 18 105 -3
127 -6 127 -18z"/>
<path d="M1620 1380 l0 -390 -60 0 -60 0 0 210 0 210 -180 0 -180 0 0 -210 0
-210 -60 0 -60 0 0 -60 0 -60 780 0 780 0 0 60 0 60 -60 0 -60 0 0 270 0 270
-180 0 -180 0 0 -270 0 -270 -60 0 -60 0 0 390 0 390 -180 0 -180 0 0 -390z
m320 -21 c6 -428 1 -409 101 -409 50 0 60 3 78 26 20 25 21 39 21 255 0 125 3
234 6 243 5 13 26 16 128 16 82 0 126 -4 134 -12 9 -9 12 -77 12 -244 0 -217
1 -233 20 -257 13 -16 33 -27 53 -29 20 -2 32 -8 32 -18 0 -13 -89 -15 -727
-18 -723 -2 -728 -2 -728 18 0 16 7 20 32 20 19 0 41 9 55 22 22 21 23 27 23
197 0 97 4 182 8 189 7 9 41 12 138 10 l129 -3 5 -186 c6 -223 8 -229 98 -229
43 0 61 5 79 22 l23 21 0 353 c0 194 3 360 6 368 6 14 25 16 138 14 l131 -3 5
-366z"/>
<path d="M1721 1664 c-20 -26 -21 -38 -21 -344 0 -306 1 -318 21 -344 17 -22
28 -26 73 -26 39 0 61 6 80 21 l26 20 0 325 0 325 -25 24 c-20 21 -34 25 -79
25 -47 0 -57 -4 -75 -26z m139 -344 l0 -330 -60 0 -60 0 0 330 0 330 60 0 60
0 0 -330z"/>
<path d="M2201 1424 c-20 -25 -21 -40 -21 -224 0 -184 1 -199 21 -224 18 -23
28 -26 79 -26 51 0 61 3 79 26 20 25 21 40 21 224 0 184 -1 199 -21 224 -18
23 -28 26 -79 26 -51 0 -61 -3 -79 -26z m139 -224 l0 -210 -60 0 -60 0 0 210
0 210 60 0 60 0 0 -210z"/>
<path d="M1240 1303 c-20 -26 -21 -37 -18 -169 4 -173 9 -184 98 -184 46 0 60
4 78 23 20 22 22 33 22 164 0 127 -2 143 -21 167 -18 23 -28 26 -79 26 -52 0
-61 -3 -80 -27z m140 -163 l0 -150 -60 0 -60 0 0 150 0 150 60 0 60 0 0 -150z"/>
<path d="M221 644 c-18 -23 -21 -41 -21 -123 0 -53 5 -113 11 -134 14 -53 93
-132 144 -146 28 -8 338 -11 1006 -11 l966 0 21 23 22 24 -25 67 c-21 55 -25
84 -25 170 0 89 -3 107 -21 130 l-20 26 -1019 0 -1019 0 -20 -26z m2060 -142
c4 -116 7 -133 31 -180 l27 -52 -980 0 c-942 0 -981 1 -1017 19 -80 41 -102
92 -102 236 l0 105 1019 0 1019 0 3 -128z"/>
</g>
</svg>
