<?xml version="1.0" standalone="no"?>
<!DOCTYPE svg PUBLIC "-//W3C//DTD SVG 20010904//EN"
 "http://www.w3.org/TR/2001/REC-SVG-20010904/DTD/svg10.dtd">
<svg version="1.0" xmlns="http://www.w3.org/2000/svg"
 width="300.000000pt" height="300.000000pt" viewBox="0 0 300.000000 300.000000"
 preserveAspectRatio="xMidYMid meet">
<metadata>
Created by potrace 1.10, written by Peter Selinger 2001-2011
</metadata>
<g transform="translate(0.000000,300.000000) scale(0.100000,-0.100000)"
fill="#000000" stroke="none">
<path d="M990 2987 c-36 -9 -70 -58 -70 -100 0 -60 50 -117 102 -117 l28 0 0
-547 0 -548 -447 -710 c-431 -684 -447 -712 -451 -766 -7 -98 51 -175 144
-189 24 -4 45 -3 46 1 4 11 2323 13 2321 1 -1 -5 17 -6 41 -2 93 14 151 91
144 189 -5 61 47 -24 -665 1106 l-233 370 0 548 0 547 28 0 c52 0 102 57 102
115 0 35 -25 82 -53 96 -26 14 -985 20 -1037 6z m1022 -54 c28 -25 24 -77 -8
-102 -26 -21 -36 -21 -504 -21 -468 0 -478 0 -504 21 -31 24 -35 72 -9 101 15
17 44 18 511 18 447 0 497 -2 514 -17z m-102 -724 c0 -530 1 -562 19 -587 10
-15 101 -160 203 -322 102 -162 290 -461 418 -665 128 -203 239 -386 247 -406
19 -47 4 -104 -37 -144 l-31 -30 -1229 0 -1229 0 -31 30 c-37 36 -55 95 -41
136 10 28 108 186 650 1048 l241 384 0 558 0 559 410 0 410 0 0 -561z"/>
<path d="M1195 2559 c-15 -23 15 -30 116 -27 84 2 104 6 104 18 0 12 -20 16
-107 18 -71 2 -109 -1 -113 -9z"/>
<path d="M1194 2339 c-12 -20 13 -30 72 -27 47 2 59 7 62 21 3 15 -5 17 -62
17 -36 0 -68 -5 -72 -11z"/>
<path d="M1195 2130 c-4 -6 -1 -17 5 -25 9 -11 36 -15 105 -15 69 0 96 4 105
15 23 27 0 35 -105 35 -61 0 -106 -4 -110 -10z"/>
<path d="M1195 1910 c-13 -21 17 -40 64 -40 54 0 76 12 68 34 -5 12 -21 16
-66 16 -33 0 -63 -5 -66 -10z"/>
<path d="M1200 1695 c-23 -27 0 -35 105 -35 105 0 128 8 105 35 -9 11 -36 15
-105 15 -69 0 -96 -4 -105 -15z"/>
<path d="M1197 1477 c-11 -28 9 -38 69 -35 51 3 59 6 59 23 0 18 -8 20 -61 23
-45 2 -63 -1 -67 -11z"/>
<path d="M1195 1259 c-15 -23 15 -30 116 -27 84 2 104 6 104 18 0 12 -20 16
-107 18 -71 2 -109 -1 -113 -9z"/>
<path d="M880 1240 c0 -6 53 -10 139 -10 83 0 142 4 146 10 4 6 -45 10 -139
10 -91 0 -146 -4 -146 -10z"/>
<path d="M1440 1240 c0 -7 87 -10 265 -10 186 1 270 -2 279 -10 10 -7 16 -8
21 0 3 5 33 10 66 10 33 0 59 4 59 10 0 6 -122 10 -345 10 -233 0 -345 -3
-345 -10z"/>
<path d="M1200 1045 c-20 -24 -1 -35 61 -35 45 0 61 4 66 15 8 23 -1 28 -61
31 -37 2 -58 -2 -66 -11z"/>
<path d="M1195 830 c-4 -6 -1 -17 5 -25 9 -11 36 -15 104 -15 92 0 120 9 109
36 -6 17 -208 20 -218 4z"/>
<path d="M1195 610 c-13 -21 8 -30 71 -30 57 0 65 2 62 18 -3 14 -15 18 -65
20 -35 2 -64 -2 -68 -8z"/>
<path d="M1198 398 c-12 -33 3 -38 107 -38 74 0 105 4 108 13 11 32 -5 37
-108 37 -73 0 -104 -4 -107 -12z"/>
</g>
</svg>
