<?xml version="1.0" standalone="no"?>
<!DOCTYPE svg PUBLIC "-//W3C//DTD SVG 20010904//EN"
 "http://www.w3.org/TR/2001/REC-SVG-20010904/DTD/svg10.dtd">
<svg version="1.0" xmlns="http://www.w3.org/2000/svg"
 width="300.000000pt" height="300.000000pt" viewBox="0 0 300.000000 300.000000"
 preserveAspectRatio="xMidYMid meet">
<metadata>
Created by potrace 1.10, written by Peter Selinger 2001-2011
</metadata>
<g transform="translate(0.000000,300.000000) scale(0.100000,-0.100000)"
fill="#000000" stroke="none">
<path d="M1030 2973 c6 -10 59 -87 119 -171 l108 -153 -52 -182 c-47 -162 -54
-196 -60 -313 l-7 -132 -202 99 -201 99 -244 0 c-134 0 -242 -2 -240 -4 3 -3
103 -26 224 -51 l220 -46 142 -96 c130 -88 141 -98 137 -122 -3 -14 -13 -75
-22 -135 l-17 -110 -245 -169 c-135 -94 -308 -212 -384 -263 -77 -52 -135 -94
-129 -94 7 0 27 9 45 19 18 11 192 94 386 185 350 165 353 166 422 166 81 0
77 10 52 -129 l-18 -95 -153 -43 c-85 -24 -157 -46 -160 -49 -3 -3 19 -3 49 0
30 3 99 8 153 12 l98 6 -6 -24 c-17 -73 -103 -523 -101 -526 2 -2 17 34 34 80
17 46 71 187 121 314 49 128 93 244 97 258 9 37 22 41 30 9 3 -15 7 -33 9 -39
2 -8 39 -1 112 21 l109 32 219 -658 c121 -362 221 -657 223 -654 2 2 -6 46
-17 97 -12 52 -55 265 -96 473 l-74 380 75 134 c40 74 72 136 70 138 -2 2 -38
-37 -81 -87 -43 -50 -79 -89 -81 -87 -2 2 -54 233 -54 241 0 8 214 -45 228
-57 9 -7 161 -142 336 -298 414 -369 415 -370 391 -338 -11 15 -74 91 -140
170 -67 79 -211 254 -322 389 l-201 246 -32 114 c-18 63 -33 121 -34 128 -1 9
47 29 134 57 115 38 147 44 220 45 83 0 90 -2 240 -65 l155 -66 29 33 c16 18
63 68 104 111 41 42 73 79 70 82 -2 2 -50 -33 -107 -79 l-103 -84 -107 65
c-58 37 -123 77 -143 90 -21 12 -51 23 -68 23 -16 0 -30 2 -30 5 0 8 111 207
132 238 39 55 -1 25 -65 -50 -37 -43 -88 -102 -114 -131 l-48 -53 -99 11
c-105 11 -114 14 -233 98 l-62 43 110 151 c122 170 117 153 101 331 l-8 77
136 151 c74 83 151 170 170 193 l35 41 -41 -35 c-23 -19 -111 -100 -195 -179
l-154 -144 -12 -71 c-6 -39 -14 -92 -18 -118 -6 -44 -15 -57 -132 -179 -116
-120 -135 -135 -222 -178 l-94 -48 -43 48 -42 47 -28 -30 -29 -29 -10 108
c-10 103 -9 117 24 306 l35 198 -165 159 c-90 88 -165 160 -167 160 -1 0 2 -8
8 -17z m239 -550 c-17 -100 -20 -150 -15 -228 7 -119 23 -152 77 -147 22 2 39
-4 56 -19 l23 -22 -50 -29 c-27 -15 -55 -28 -62 -28 -7 0 -33 14 -58 30 -25
16 -53 30 -63 30 -14 0 -16 4 -8 18 5 9 12 69 15 132 6 95 16 143 54 275 26
88 48 150 50 138 2 -12 -7 -80 -19 -150z m681 -50 c0 -19 -29 -68 -91 -153
-113 -156 -125 -181 -103 -215 13 -19 125 -101 190 -138 7 -4 57 -12 113 -18
89 -9 105 -9 126 5 30 20 51 20 58 2 3 -8 23 -20 45 -26 21 -7 49 -21 63 -32
19 -16 20 -18 4 -12 -11 5 -64 10 -118 12 -92 3 -106 1 -230 -38 -135 -43
-177 -68 -177 -104 0 -34 60 -239 77 -266 9 -14 71 -92 137 -173 66 -81 130
-162 141 -180 l20 -32 -42 35 c-22 19 -98 85 -167 147 -135 119 -143 123 -304
149 -51 8 -82 -13 -82 -57 0 -53 42 -211 61 -230 16 -16 18 -28 13 -72 -4 -34
0 -82 10 -131 16 -77 21 -134 11 -124 -3 3 -51 137 -106 299 -70 207 -107 301
-124 318 l-24 25 -91 -23 -91 -24 -22 22 c-13 11 -28 21 -33 21 -22 0 -54 -48
-85 -128 -31 -80 -49 -102 -49 -62 0 11 -5 29 -12 40 -10 16 -9 23 11 44 18
19 29 51 42 123 11 54 16 106 13 115 -19 61 -154 63 -274 6 -122 -59 -190 -87
-190 -80 0 4 60 48 133 99 73 50 140 100 149 110 20 21 45 130 54 232 5 53 3
73 -9 92 -9 13 -84 69 -166 124 -97 64 -144 101 -132 103 19 3 56 -13 289
-125 l142 -69 -60 -89 c-33 -50 -60 -95 -60 -100 0 -6 16 -35 35 -65 19 -30
35 -61 35 -69 0 -8 12 -28 27 -43 22 -23 36 -28 72 -28 25 0 53 -5 61 -10 8
-5 26 -42 40 -82 33 -95 49 -102 149 -63 l72 27 110 -47 c105 -44 111 -46 135
-31 30 20 30 42 3 175 l-21 102 56 60 c31 33 56 68 56 78 0 16 -9 29 -73 115
-47 63 -90 106 -107 106 -10 0 -34 -18 -54 -40 -41 -46 -52 -48 -109 -19 l-41
22 90 46 c50 25 99 53 110 61 47 37 274 281 274 295 0 8 5 15 10 15 6 0 10
-12 10 -27z m-212 -481 l72 -97 -64 -57 -63 -58 23 -107 c13 -60 26 -122 30
-140 l6 -32 -122 54 -121 55 -80 -37 c-44 -20 -81 -34 -83 -32 -1 2 -14 45
-27 94 l-24 90 -83 3 -82 3 0 38 c0 23 -6 44 -15 51 -9 7 -25 26 -36 42 l-21
29 62 95 c57 85 65 93 81 82 10 -7 38 -27 62 -45 l43 -31 56 35 56 35 86 -45
86 -44 37 58 c20 33 39 59 42 58 3 0 39 -44 79 -97z"/>
</g>
</svg>
