<?xml version="1.0" standalone="no"?>
<!DOCTYPE svg PUBLIC "-//W3C//DTD SVG 20010904//EN"
 "http://www.w3.org/TR/2001/REC-SVG-20010904/DTD/svg10.dtd">
<svg version="1.0" xmlns="http://www.w3.org/2000/svg"
 width="300.000000pt" height="300.000000pt" viewBox="0 0 300.000000 300.000000"
 preserveAspectRatio="xMidYMid meet">
<metadata>
Created by potrace 1.10, written by Peter Selinger 2001-2011
</metadata>
<g transform="translate(0.000000,300.000000) scale(0.100000,-0.100000)"
fill="#000000" stroke="none">
<path d="M1192 2611 c-7 -8 -11 -24 -8 -36 22 -89 86 -573 86 -655 l0 -35
-366 0 c-327 0 -368 -2 -377 -16 -6 -9 -7 -24 -4 -33 6 -14 43 -16 382 -16
l375 0 0 -107 c0 -60 3 -125 6 -146 l7 -38 -376 1 c-207 1 -381 -1 -387 -5
-13 -8 -13 -42 0 -50 6 -4 180 -6 387 -5 l376 1 -7 -38 c-3 -21 -6 -86 -6
-145 l0 -108 -375 0 c-339 0 -376 -2 -382 -16 -3 -9 -2 -24 4 -33 9 -14 50
-16 377 -16 l366 0 0 -28 c0 -82 -61 -560 -85 -658 -11 -49 -8 -50 295 -50
299 0 305 1 294 46 -30 131 -98 675 -84 675 6 0 569 -230 635 -259 21 -10 23
-8 -40 -27 -23 -7 -30 -15 -30 -34 0 -23 4 -25 40 -24 22 1 73 11 113 24 88
27 89 34 28 140 -51 88 -68 102 -93 78 -16 -17 -16 -20 2 -55 11 -21 21 -42
23 -46 2 -5 -18 3 -44 16 -27 13 -179 77 -339 142 -159 65 -293 121 -296 124
-4 3 -10 70 -14 149 l-7 142 343 0 342 0 -39 -34 c-33 -29 -37 -37 -28 -53 6
-10 18 -19 26 -21 21 -4 168 116 168 138 0 22 -147 142 -168 138 -8 -2 -20
-11 -26 -21 -9 -16 -5 -24 28 -53 l39 -34 -342 0 -343 0 7 143 c4 78 10 145
14 148 3 3 137 59 296 124 160 65 312 129 339 142 26 13 46 21 44 16 -2 -4
-12 -25 -23 -46 -18 -35 -18 -38 -2 -55 13 -12 22 -14 34 -6 35 22 124 204
100 204 -2 0 -47 13 -99 29 -100 30 -128 28 -128 -9 0 -21 28 -40 59 -40 11 0
22 -4 25 -8 4 -6 -626 -272 -645 -272 -10 0 40 427 71 594 18 100 17 126 -4
126 -6 0 -132 1 -280 3 -220 2 -272 -1 -284 -12z m508 -55 c0 -2 -9 -56 -20
-119 -59 -350 -87 -808 -70 -1169 11 -247 38 -516 70 -705 11 -63 20 -117 20
-119 0 -2 -99 -4 -220 -4 -121 0 -220 1 -220 3 0 2 11 75 25 163 55 357 76
713 63 1107 -7 237 -26 444 -63 681 -14 88 -25 161 -25 163 0 2 99 3 220 3
121 0 220 -2 220 -4z m704 -376 c31 -11 33 -29 7 -61 -19 -23 -20 -23 -38 -6
-20 20 -25 77 -6 77 6 0 23 -4 37 -10z m16 -664 c10 -13 10 -19 0 -32 -28 -32
-47 -35 -64 -9 -15 23 -15 27 0 50 17 26 36 23 64 -9z m0 -650 c14 -25 13 -28
-4 -42 -11 -8 -29 -14 -40 -14 -16 0 -21 6 -21 28 0 32 22 65 39 59 6 -2 18
-16 26 -31z"/>
</g>
</svg>
