<?xml version="1.0" standalone="no"?>
<!DOCTYPE svg PUBLIC "-//W3C//DTD SVG 20010904//EN"
 "http://www.w3.org/TR/2001/REC-SVG-20010904/DTD/svg10.dtd">
<svg version="1.0" xmlns="http://www.w3.org/2000/svg"
 width="300.000000pt" height="300.000000pt" viewBox="0 0 300.000000 300.000000"
 preserveAspectRatio="xMidYMid meet">
<metadata>
Created by potrace 1.10, written by Peter Selinger 2001-2011
</metadata>
<g transform="translate(0.000000,300.000000) scale(0.100000,-0.100000)"
fill="#000000" stroke="none">
<path d="M495 2829 c-111 -36 -193 -115 -235 -226 -20 -54 -20 -70 -18 -706
l3 -652 29 -59 c39 -79 102 -140 184 -179 l67 -32 353 -3 352 -3 0 -225 0
-224 -110 0 c-176 0 -200 -23 -200 -188 0 -109 12 -137 70 -167 43 -22 977
-22 1020 0 58 30 70 58 70 167 0 165 -24 188 -200 188 l-110 0 0 224 0 225
353 3 352 3 67 32 c82 39 145 100 184 179 l29 59 3 652 c2 640 2 652 -19 707
-41 111 -134 197 -248 230 -48 14 -164 16 -995 15 -904 0 -943 -1 -1001 -20z
m2025 -60 c66 -32 123 -86 158 -154 l27 -50 3 -494 c3 -553 3 -556 -66 -646
-27 -36 -57 -60 -106 -85 l-69 -35 -967 0 -967 0 -69 35 c-49 25 -79 49 -106
85 -69 90 -69 93 -66 646 l3 494 27 50 c47 90 132 157 219 174 24 5 467 8 984
8 l940 -2 55 -26z m-2215 -1358 c10 -31 92 -101 153 -129 l57 -27 985 0 985 0
66 32 c61 30 139 99 151 134 11 31 14 -1 8 -81 -9 -106 -39 -169 -110 -233
-91 -82 -23 -77 -1100 -77 -1077 0 -1009 -5 -1100 77 -63 57 -100 127 -106
202 -3 31 -7 71 -9 89 -4 35 10 44 20 13z m1415 -666 l0 -225 -220 0 -220 0 0
225 0 225 220 0 220 0 0 -225z m285 -300 c23 -22 25 -32 25 -108 0 -69 -4 -89
-19 -108 l-19 -24 -492 0 -492 0 -19 24 c-29 35 -28 177 2 215 l20 26 485 0
485 0 24 -25z"/>
<path d="M946 2645 c-75 -27 -126 -81 -146 -157 -7 -24 -10 -191 -8 -461 3
-412 4 -423 25 -463 28 -53 83 -100 130 -113 52 -15 1054 -15 1106 0 47 13
102 60 130 113 22 40 22 47 22 486 0 415 -1 447 -19 480 -26 49 -55 79 -101
103 -39 22 -49 22 -570 24 -437 2 -537 0 -569 -12z m1131 -67 c75 -49 78 -64
81 -395 l3 -293 -73 0 c-48 0 -81 5 -94 14 -11 8 -38 55 -59 105 -36 85 -59
112 -76 94 -4 -4 -24 -48 -44 -98 -21 -49 -44 -96 -50 -104 -17 -18 -54 -5
-60 22 -2 12 -23 118 -45 235 -22 118 -43 218 -46 223 -8 13 -34 11 -39 -3 -3
-7 -21 -114 -40 -238 -37 -230 -50 -271 -78 -240 -8 9 -33 146 -62 335 -27
176 -52 324 -57 330 -6 6 -14 6 -25 -1 -13 -8 -26 -77 -62 -334 -37 -257 -49
-325 -63 -333 -30 -20 -44 9 -79 164 -18 83 -39 159 -46 168 -21 29 -39 -6
-78 -154 -20 -76 -41 -145 -47 -152 -6 -7 -30 -13 -55 -13 l-44 0 3 283 c3
252 5 286 22 320 21 42 63 76 110 88 17 4 263 7 547 6 l515 -2 41 -27z m-671
-696 c32 -49 99 -54 129 -8 8 12 26 94 39 182 14 95 26 149 29 134 3 -14 17
-88 31 -165 22 -121 29 -143 51 -162 57 -50 124 -15 160 82 24 65 32 74 44 44
49 -129 75 -149 196 -149 l78 0 -5 -114 c-4 -103 -7 -118 -30 -154 -16 -23
-44 -48 -70 -61 -43 -21 -55 -21 -558 -21 -503 0 -515 0 -558 21 -26 13 -54
38 -70 61 -24 37 -27 51 -30 164 l-4 124 49 0 c82 0 108 30 139 162 9 43 19
76 21 74 3 -2 13 -46 24 -97 26 -127 26 -127 59 -144 42 -22 68 -19 99 13 26
25 29 40 54 222 15 107 27 209 27 226 0 17 3 34 7 38 4 4 23 -96 41 -221 19
-126 40 -238 48 -251z"/>
</g>
</svg>
