<?xml version="1.0" standalone="no"?>
<!DOCTYPE svg PUBLIC "-//W3C//DTD SVG 20010904//EN"
 "http://www.w3.org/TR/2001/REC-SVG-20010904/DTD/svg10.dtd">
<svg version="1.0" xmlns="http://www.w3.org/2000/svg"
 width="300.000000pt" height="300.000000pt" viewBox="0 0 300.000000 300.000000"
 preserveAspectRatio="xMidYMid meet">
<metadata>
Created by potrace 1.10, written by Peter Selinger 2001-2011
</metadata>
<g transform="translate(0.000000,300.000000) scale(0.100000,-0.100000)"
fill="#000000" stroke="none">
<path d="M1385 2827 c-149 -50 -307 -197 -385 -358 l-23 -46 -131 -6 c-72 -3
-158 -13 -191 -22 -190 -52 -318 -169 -361 -330 -38 -140 10 -350 117 -516
l30 -47 -30 -49 c-210 -342 -160 -664 124 -799 101 -48 173 -64 316 -71 l126
-6 23 -46 c64 -133 199 -272 319 -330 72 -34 81 -36 181 -36 100 0 109 2 181
36 120 58 255 197 319 330 l23 46 126 6 c140 7 214 23 310 68 124 57 203 146
241 268 46 148 5 346 -111 534 l-30 49 30 47 c210 327 160 661 -122 799 -89
44 -173 62 -318 69 l-126 6 -23 46 c-64 133 -199 273 -319 329 -66 32 -86 37
-166 39 -55 2 -105 -2 -130 -10z m291 -72 c93 -45 180 -129 253 -243 89 -139
72 -128 213 -135 192 -9 320 -52 415 -139 152 -141 163 -346 31 -608 -32 -63
-58 -122 -58 -132 0 -10 22 -59 49 -110 62 -117 90 -203 98 -299 10 -135 -30
-243 -122 -327 -97 -89 -218 -129 -418 -140 l-121 -7 -31 -42 c-16 -23 -48
-70 -70 -104 -133 -209 -336 -308 -521 -254 -124 36 -252 150 -344 305 -56 96
-57 96 -195 104 -196 10 -310 47 -407 135 -158 141 -170 346 -37 609 32 64 59
123 59 132 0 9 -27 68 -59 133 -73 143 -96 235 -88 349 11 164 104 284 269
349 74 29 136 40 273 47 l119 7 31 41 c16 23 46 67 65 99 45 74 143 174 206
211 86 51 140 65 231 61 71 -3 92 -8 159 -42z"/>
<path d="M1435 2686 c-101 -33 -186 -100 -254 -201 -65 -96 -50 -123 84 -160
50 -13 117 -33 149 -44 74 -26 101 -26 168 -1 29 10 95 31 147 44 109 29 135
48 127 88 -7 35 -71 123 -132 182 -87 83 -204 120 -289 92z m168 -55 c23 -10
63 -37 90 -61 49 -44 143 -167 134 -176 -3 -3 -34 -12 -68 -20 -35 -8 -108
-29 -161 -46 l-97 -32 -98 32 c-54 17 -127 38 -162 46 -34 8 -65 17 -68 20 -3
3 5 20 18 38 137 200 270 264 412 199z"/>
<path d="M706 2254 c-80 -19 -171 -70 -211 -117 -81 -94 -87 -242 -16 -402 24
-54 67 -105 88 -105 7 0 72 55 143 123 98 91 133 131 140 157 30 113 70 285
70 304 0 56 -85 71 -214 40z m160 -116 c-14 -51 -32 -126 -40 -167 -14 -70
-16 -75 -68 -119 -29 -25 -85 -79 -125 -120 l-72 -74 -29 58 c-63 126 -80 258
-43 339 26 59 101 120 175 145 54 17 213 41 225 33 2 -1 -8 -44 -23 -95z"/>
<path d="M2097 2252 c-23 -25 -22 -37 13 -182 16 -69 32 -138 36 -155 4 -21
42 -64 131 -150 69 -66 134 -124 144 -129 56 -27 149 167 149 311 0 113 -57
207 -158 261 -109 58 -281 82 -315 44z m240 -53 c73 -24 148 -86 174 -144 37
-81 20 -213 -43 -338 l-29 -58 -72 73 c-40 41 -98 97 -129 126 -40 36 -58 59
-58 76 0 13 -14 77 -31 142 -17 66 -33 128 -36 140 -4 20 -2 20 79 12 45 -4
110 -17 145 -29z"/>
<path d="M1062 2227 c-25 -26 -52 -98 -52 -137 0 -39 30 -63 62 -51 44 16 169
98 185 120 13 19 12 23 -10 45 -22 21 -99 46 -146 46 -10 0 -27 -10 -39 -23z
m113 -29 c36 -6 65 -14 65 -18 0 -3 -16 -14 -35 -23 -19 -9 -64 -34 -101 -57
-36 -22 -67 -40 -69 -40 -2 0 9 36 23 80 18 56 30 79 40 75 7 -2 42 -10 77
-17z"/>
<path d="M1818 2236 c-58 -16 -78 -32 -78 -62 0 -24 57 -67 163 -122 46 -24
48 -24 67 -7 11 10 20 28 20 40 0 39 -28 117 -51 141 -25 27 -51 29 -121 10z
m124 -96 c14 -44 25 -80 23 -80 -2 0 -33 18 -69 40 -37 23 -82 48 -101 57 -19
9 -35 19 -35 23 0 3 33 13 73 22 39 8 74 16 77 17 3 0 18 -35 32 -79z"/>
<path d="M1338 2057 c-157 -79 -318 -180 -362 -225 -36 -38 -45 -108 -45 -332
0 -224 9 -294 45 -331 70 -73 463 -299 520 -299 67 0 449 216 528 299 24 25
30 41 37 108 10 96 10 343 1 440 -5 48 -15 82 -28 100 -11 16 -65 58 -120 95
-107 73 -382 218 -413 218 -11 0 -84 -33 -163 -73z m311 -37 c134 -68 335
-194 362 -227 11 -13 14 -75 14 -293 0 -258 -1 -279 -19 -299 -53 -58 -458
-291 -507 -291 -48 0 -453 234 -505 291 -18 20 -19 41 -19 299 0 215 3 281 13
293 41 49 465 296 510 297 7 0 75 -31 151 -70z"/>
<path d="M1420 1896 c-78 -17 -144 -51 -199 -105 -64 -63 -99 -125 -117 -212
-28 -134 12 -265 111 -364 99 -98 231 -139 364 -111 223 47 363 256 317 475
-34 164 -151 282 -312 316 -81 17 -91 17 -164 1z m246 -74 c77 -39 146 -114
174 -190 31 -82 25 -213 -13 -293 -83 -172 -307 -250 -484 -167 -72 33 -155
121 -181 191 -30 78 -30 195 -1 271 35 95 131 182 239 217 14 5 66 7 115 6 78
-3 98 -8 151 -35z"/>
<path d="M1431 1749 c-126 -37 -206 -166 -182 -295 24 -127 147 -224 270 -212
183 18 293 219 206 377 -60 109 -181 162 -294 130z m134 -40 c25 -7 58 -29 86
-58 92 -91 92 -211 0 -302 -91 -92 -211 -92 -302 0 -90 89 -92 207 -6 298 63
66 135 86 222 62z"/>
<path d="M711 1598 c-85 -85 -85 -105 -3 -190 50 -52 70 -58 95 -30 26 28 25
222 -1 245 -28 26 -44 21 -91 -25z m74 -98 c0 -66 -1 -120 -2 -120 -8 0 -103
108 -103 117 0 12 89 120 100 122 3 1 5 -53 5 -119z"/>
<path d="M2197 1622 c-14 -15 -17 -40 -17 -123 1 -153 29 -177 112 -91 82 85
82 96 0 184 -48 52 -70 58 -95 30z m76 -58 c26 -30 47 -60 47 -67 0 -9 -95
-117 -103 -117 -1 0 -2 54 -2 120 0 66 2 120 5 119 3 0 26 -25 53 -55z"/>
<path d="M528 1343 c-82 -88 -125 -308 -79 -409 52 -115 162 -182 332 -203 85
-11 121 -4 137 26 8 16 -20 155 -68 333 -7 27 -41 65 -140 158 -71 67 -136
122 -143 122 -7 0 -25 -12 -39 -27z m215 -180 l68 -62 20 -96 c11 -53 30 -130
43 -170 l24 -74 -67 5 c-127 11 -223 43 -289 99 -93 78 -97 246 -10 419 l30
59 57 -59 c31 -33 87 -88 124 -121z"/>
<path d="M2291 1249 c-71 -67 -134 -133 -139 -148 -5 -14 -25 -93 -45 -176
-38 -160 -37 -178 9 -195 28 -11 145 2 221 25 102 30 199 119 223 203 23 84 2
228 -47 327 -20 39 -63 85 -80 85 -7 0 -71 -55 -142 -121z m178 34 c86 -172
82 -340 -11 -418 -66 -56 -162 -88 -289 -99 l-67 -5 24 74 c13 40 32 117 43
171 l20 97 70 64 c39 35 94 89 122 119 29 30 54 54 56 54 1 0 16 -26 32 -57z"/>
<path d="M1025 950 c-22 -24 -17 -80 15 -145 26 -54 51 -63 129 -47 52 11 101
43 101 67 0 18 -38 48 -115 92 -94 54 -108 58 -130 33z m202 -116 c40 -10 25
-20 -49 -34 -40 -7 -78 -14 -83 -17 -6 -2 -21 29 -34 69 -13 40 -26 79 -28 85
-3 7 35 -12 83 -42 48 -31 98 -58 111 -61z"/>
<path d="M1930 960 c-14 -4 -47 -21 -75 -38 -27 -18 -59 -36 -70 -41 -33 -15
-57 -48 -51 -69 9 -27 65 -52 130 -59 46 -5 56 -3 74 17 24 26 52 101 52 140
0 36 -28 59 -60 50z m12 -100 c-15 -44 -31 -79 -37 -77 -5 3 -43 10 -82 17
-40 7 -73 17 -73 22 0 4 6 8 14 8 7 0 53 24 102 54 49 30 92 55 96 55 3 1 -6
-35 -20 -79z"/>
<path d="M1440 729 c-14 -6 -79 -26 -145 -45 -133 -39 -159 -55 -151 -95 13
-68 152 -216 242 -259 72 -34 161 -33 236 5 92 45 237 208 238 266 0 28 -36
50 -116 71 -43 11 -111 30 -150 44 -78 26 -114 29 -154 13z m140 -51 c30 -10
97 -30 149 -44 52 -13 97 -26 99 -29 8 -8 -88 -133 -135 -175 -127 -113 -259
-113 -386 0 -52 46 -143 167 -133 177 3 3 54 18 113 33 60 16 131 37 158 48
28 11 57 18 65 15 8 -3 40 -14 70 -25z"/>
</g>
</svg>
