<?xml version="1.0" standalone="no"?>
<!DOCTYPE svg PUBLIC "-//W3C//DTD SVG 20010904//EN"
 "http://www.w3.org/TR/2001/REC-SVG-20010904/DTD/svg10.dtd">
<svg version="1.0" xmlns="http://www.w3.org/2000/svg"
 width="300.000000pt" height="300.000000pt" viewBox="0 0 300.000000 300.000000"
 preserveAspectRatio="xMidYMid meet">
<metadata>
Created by potrace 1.10, written by Peter Selinger 2001-2011
</metadata>
<g transform="translate(0.000000,300.000000) scale(0.100000,-0.100000)"
fill="#000000" stroke="none">
<path d="M1920 2990 c-49 -9 -75 -25 -106 -66 -30 -39 -43 -118 -25 -151 9
-18 4 -27 -35 -67 l-47 -46 -34 30 c-18 17 -41 30 -51 30 -9 0 -193 -177 -409
-392 -427 -427 -420 -418 -364 -472 l28 -27 -113 -113 c-80 -79 -114 -119
-114 -136 0 -16 31 -54 98 -123 78 -78 105 -99 126 -99 22 0 52 23 140 110
l111 111 33 -30 c18 -16 42 -29 54 -29 14 0 72 50 174 151 l152 151 134 -5
c152 -5 218 -23 317 -87 165 -107 258 -266 268 -460 9 -171 -45 -314 -166
-442 -64 -68 -84 -80 -94 -54 -8 21 -124 99 -184 124 -29 12 -72 25 -95 28
l-43 6 0 105 c0 92 -2 106 -19 119 -17 12 -118 14 -627 14 -539 0 -609 -2
-623 -16 -13 -13 -16 -42 -16 -158 0 -126 2 -145 18 -159 16 -14 44 -17 188
-17 l169 0 100 -167 c55 -93 119 -198 142 -235 l43 -68 -93 0 c-116 0 -171
-18 -236 -76 -53 -47 -84 -104 -96 -171 -9 -55 1 -82 32 -94 34 -13 38 -7 19
29 -37 71 33 200 133 248 22 11 73 20 132 23 102 6 129 18 129 56 0 27 -230
417 -273 462 l-31 33 -156 0 c-108 0 -160 4 -168 12 -8 8 -12 52 -12 130 0
114 1 118 23 123 12 3 281 4 597 3 l575 -3 5 -92 c6 -110 23 -135 104 -154 68
-16 150 -58 210 -108 26 -23 57 -41 68 -41 56 0 162 109 222 227 49 97 69 195
64 308 -9 168 -67 297 -192 420 -127 126 -258 175 -464 175 l-124 0 -147 -145
c-81 -80 -152 -145 -159 -145 -6 0 -27 10 -47 21 -48 29 -60 23 -180 -93 -53
-51 -101 -95 -106 -96 -14 -5 -179 159 -179 177 0 9 41 57 91 106 50 50 97
103 105 118 14 27 14 31 -10 67 -24 37 -24 38 -6 66 28 45 724 734 740 734 8
0 26 -9 40 -20 41 -32 68 -25 123 31 l48 50 -6 62 c-5 51 -3 67 14 94 17 27
99 93 116 93 18 0 128 -87 186 -147 97 -101 109 -119 109 -170 0 -91 -50 -133
-158 -133 -70 0 -71 0 -116 -46 -52 -51 -57 -75 -26 -128 l21 -34 -66 -73
c-36 -40 -65 -79 -65 -86 0 -25 38 -51 106 -73 238 -78 421 -236 528 -455 68
-138 86 -208 93 -361 15 -321 -110 -570 -395 -786 -59 -46 -62 -50 -62 -91 0
-33 6 -49 23 -65 21 -19 35 -22 119 -22 107 0 173 -16 223 -54 74 -57 115
-176 79 -231 l-18 -28 24 8 c41 12 50 25 50 75 0 57 -47 157 -92 195 -70 59
-103 69 -245 73 l-133 4 0 36 c0 34 5 40 52 67 68 39 204 174 258 254 54 81
103 187 132 287 20 69 23 101 22 244 0 150 -3 173 -27 253 -49 158 -114 272
-226 389 -110 117 -248 203 -401 248 -41 13 -76 24 -78 25 -2 2 29 34 67 72
82 79 90 108 44 155 l-27 29 44 44 c44 43 46 44 85 33 120 -32 238 90 205 213
-10 35 -33 65 -119 152 -58 60 -115 114 -126 120 -30 16 -86 24 -125 17z"/>
<path d="M1891 2889 c-62 -62 -37 -111 136 -271 46 -43 70 -58 91 -58 61 0
115 74 93 128 -7 16 -56 72 -110 126 -84 83 -104 98 -138 103 -35 5 -43 1 -72
-28z m192 -108 c101 -102 113 -127 80 -163 -33 -36 -60 -23 -164 79 -83 81
-99 102 -99 128 0 39 16 55 55 55 26 0 47 -16 128 -99z"/>
<path d="M1830 2668 c-18 -13 -42 -39 -53 -59 l-21 -37 27 -39 c25 -36 73 -73
95 -73 16 0 73 51 93 84 16 26 16 32 4 56 -17 32 -80 90 -99 90 -7 0 -28 -10
-46 -22z m88 -135 l-42 -43 -43 42 -43 42 42 43 42 43 43 -42 43 -42 -42 -43z"/>
<path d="M1268 2272 c-257 -256 -338 -343 -338 -361 0 -34 246 -281 280 -281
18 0 102 78 332 308 170 169 320 324 334 344 18 26 24 45 20 61 -7 30 -249
267 -272 267 -11 0 -160 -141 -356 -338z m272 -277 l-333 -333 -125 125 -125
125 333 333 334 334 124 -126 125 -125 -333 -333z"/>
<path d="M1689 2031 c-92 -92 -77 -121 71 -141 159 -22 290 -89 399 -206 75
-79 113 -144 148 -249 22 -68 26 -98 26 -195 1 -192 -57 -330 -200 -480 -46
-48 -83 -96 -83 -106 0 -34 47 -122 69 -129 68 -21 262 184 342 362 48 107 69
211 69 345 0 197 -39 328 -143 483 -116 172 -281 292 -483 350 -131 38 -145
36 -215 -34z m205 -6 c231 -67 413 -218 516 -428 60 -123 82 -219 82 -362 0
-246 -82 -430 -272 -608 -45 -42 -85 -77 -88 -77 -6 0 -54 113 -49 115 26 13
110 93 143 136 120 156 174 359 144 539 -54 325 -315 569 -639 596 l-80 7 52
52 c34 33 61 52 78 53 15 1 66 -9 113 -23z"/>
<path d="M929 1762 c-34 -22 -130 -119 -153 -154 -17 -27 -17 -29 4 -63 12
-20 38 -47 58 -60 31 -21 38 -23 61 -10 39 20 171 160 171 181 0 27 -31 70
-70 99 -40 30 -38 29 -71 7z m76 -62 l39 -40 -81 -82 -82 -82 -44 40 -44 39
81 83 c44 45 83 82 86 82 3 0 24 -18 45 -40z"/>
<path d="M488 1070 c-28 -28 -30 -35 -26 -81 10 -96 -33 -89 569 -89 l528 0
20 26 c33 41 29 108 -8 145 l-29 29 -512 0 -512 0 -30 -30z m1072 -70 l0 -60
-530 0 -530 0 0 60 0 60 530 0 530 0 0 -60z"/>
<path d="M892 837 c-12 -13 -22 -28 -22 -34 0 -18 159 -277 189 -307 38 -38
63 -24 90 49 33 87 59 134 112 197 27 33 49 63 49 67 0 4 -10 17 -23 29 -22
21 -32 22 -198 22 -171 0 -176 -1 -197 -23z m340 -72 c-57 -60 -116 -168 -127
-236 l-7 -40 -82 138 c-45 76 -90 150 -100 166 l-18 27 194 0 194 0 -54 -55z"/>
<path d="M1488 841 c-83 -27 -139 -63 -197 -127 -82 -89 -121 -186 -121 -299
0 -81 23 -105 97 -105 76 0 94 19 103 111 8 84 24 120 72 165 47 45 93 65 157
71 149 13 271 -103 271 -257 0 -65 28 -90 99 -90 42 0 57 5 76 25 29 29 32 67
10 168 -29 139 -119 251 -251 314 -70 33 -88 38 -169 40 -67 2 -104 -2 -147
-16z m254 -42 c174 -58 288 -218 288 -404 l0 -45 -62 0 -63 0 0 68 c-1 153
-111 269 -266 280 -171 12 -310 -114 -311 -282 l0 -66 -62 0 -62 0 7 84 c11
143 79 256 194 325 105 64 226 78 337 40z"/>
<path d="M1570 621 c-74 -23 -117 -61 -149 -131 -29 -63 -27 -111 5 -149 l26
-31 164 0 165 0 24 26 c20 21 25 38 25 76 0 132 -141 245 -260 209z m92 -41
c81 -23 128 -89 128 -180 l0 -50 -169 0 c-185 0 -181 -1 -181 63 0 69 59 146
128 167 38 11 52 11 94 0z"/>
<path d="M870 271 c-49 -15 -89 -41 -119 -78 -36 -44 -39 -73 -10 -99 20 -18
43 -19 320 -22 321 -4 315 -2 288 -54 -10 -18 -8 -19 13 -13 36 11 48 25 48
56 0 58 -14 60 -354 57 -178 -2 -306 1 -306 6 0 20 51 74 83 90 32 14 111 16
789 16 727 0 754 -1 785 -19 33 -21 75 -70 71 -84 -2 -4 -141 -8 -310 -7 -296
0 -308 0 -328 -20 -34 -34 -21 -80 29 -95 21 -6 23 -5 16 11 -23 57 -44 53
284 56 l301 3 26 26 26 27 -23 41 c-26 48 -82 89 -136 101 -47 11 -1458 11
-1493 1z"/>
<path d="M1582 104 c-31 -21 -30 -69 3 -90 29 -19 60 -11 81 21 18 27 7 57
-26 75 -25 13 -32 13 -58 -6z"/>
</g>
</svg>
