<?xml version="1.0" standalone="no"?>
<!DOCTYPE svg PUBLIC "-//W3C//DTD SVG 20010904//EN"
 "http://www.w3.org/TR/2001/REC-SVG-20010904/DTD/svg10.dtd">
<svg version="1.0" xmlns="http://www.w3.org/2000/svg"
 width="300.000000pt" height="300.000000pt" viewBox="0 0 300.000000 300.000000"
 preserveAspectRatio="xMidYMid meet">
<metadata>
Created by potrace 1.10, written by Peter Selinger 2001-2011
</metadata>
<g transform="translate(0.000000,300.000000) scale(0.100000,-0.100000)"
fill="#000000" stroke="none">
<path d="M160 2790 c-26 -26 -25 -52 3 -77 23 -20 560 -361 584 -370 22 -9 14
-23 -13 -23 -50 0 -115 -23 -130 -45 -18 -28 -1 -73 30 -80 12 -2 75 8 141 23
l119 28 248 -156 c136 -85 248 -157 248 -160 0 -3 -139 -4 -310 -2 l-310 3
202 -268 c367 -488 449 -593 461 -593 9 0 11 -22 9 -79 -4 -70 -2 -81 17 -100
27 -27 55 -27 82 0 19 19 21 30 17 100 l-3 79 152 0 151 0 84 -83 c118 -118
417 -400 434 -410 27 -15 14 -25 -25 -20 -109 15 -177 -41 -120 -98 19 -19 28
-20 147 -14 l127 7 137 -131 c84 -79 146 -131 158 -131 25 0 60 34 60 59 0 12
-54 71 -140 152 l-140 133 0 127 c0 109 -2 128 -18 142 -22 20 -63 22 -80 5
-7 -7 -12 -43 -12 -91 l0 -79 -161 153 c-89 85 -190 180 -225 213 -35 32 -64
61 -64 65 0 3 175 5 390 3 l390 -2 0 430 0 430 -622 2 -622 3 3 67 c2 61 0 70
-23 93 -31 31 -41 31 -72 0 -17 -17 -23 -32 -19 -45 6 -20 -9 -28 -19 -11 -3
4 -94 64 -202 132 l-197 123 70 67 c103 97 244 159 366 159 38 0 53 5 72 25
23 22 25 32 25 112 0 103 -14 133 -60 133 -44 0 -64 -36 -58 -105 5 -53 4 -55
-21 -55 -50 0 -158 -33 -240 -73 -62 -30 -105 -60 -160 -114 -42 -40 -77 -73
-78 -73 -2 0 -3 9 -3 19 0 11 -9 61 -21 111 -17 72 -26 94 -45 107 -19 12 -30
13 -49 5 -33 -15 -38 -43 -21 -113 9 -33 16 -64 16 -69 0 -4 -46 23 -102 59
-252 165 -506 321 -521 321 -9 0 -26 -9 -37 -20z m326 -200 c139 -88 269 -167
288 -177 34 -16 37 -16 57 3 19 17 20 25 14 83 -10 91 14 77 40 -25 36 -143
54 -152 141 -73 105 95 216 152 349 179 77 16 105 40 105 94 0 39 14 76 24 65
7 -7 10 -158 3 -165 -3 -3 -39 -10 -81 -15 -101 -13 -216 -59 -298 -119 -61
-44 -128 -119 -128 -141 0 -21 64 -76 150 -130 214 -133 258 -159 273 -165 11
-4 27 5 47 28 25 27 32 30 40 18 5 -8 10 -37 10 -64 0 -37 6 -56 22 -73 l21
-23 588 0 c484 0 589 -2 598 -14 8 -9 11 -120 9 -387 l-3 -374 -370 -5 c-203
-3 -371 -7 -372 -8 -16 -16 -22 -45 -13 -61 18 -36 421 -411 447 -417 38 -10
56 16 61 86 8 103 26 67 32 -61 3 -63 10 -123 17 -134 6 -11 66 -73 133 -139
85 -83 118 -122 111 -129 -12 -12 -8 -15 -148 118 -137 129 -127 125 -265 125
-72 0 -118 4 -118 10 0 6 12 10 28 11 47 1 75 9 94 26 41 37 36 44 -257 319
-110 104 -214 204 -232 222 l-31 32 -160 0 -161 0 -20 -26 c-17 -21 -21 -41
-21 -96 0 -44 -4 -67 -10 -63 -5 3 -10 35 -10 71 0 63 -1 66 -43 112 -61 65
-569 741 -574 763 -5 18 6 19 249 19 242 0 256 1 273 20 31 34 7 60 -137 152
-392 251 -343 231 -488 198 -47 -11 -93 -20 -103 -20 -34 0 -12 23 34 36 25 8
54 23 64 34 27 30 7 60 -74 111 -36 23 -88 56 -116 74 -125 81 -191 122 -200
126 -40 17 -175 115 -175 126 0 23 12 16 286 -157z"/>
<path d="M2020 1757 c-14 -7 -34 -29 -45 -50 l-20 -37 24 -42 c37 -64 257
-353 287 -377 38 -30 71 -26 110 13 60 60 54 73 -123 309 -150 199 -170 216
-233 184z m66 -35 c5 -4 72 -89 148 -190 144 -189 159 -221 120 -249 -44 -32
-62 -17 -211 181 -79 104 -143 198 -143 209 0 41 53 72 86 49z"/>
<path d="M2296 1740 c-54 -48 -50 -78 24 -182 82 -115 111 -142 156 -142 28 0
43 7 65 32 43 48 38 76 -31 174 -74 104 -107 136 -146 144 -26 5 -38 0 -68
-26z m161 -110 c81 -105 90 -138 48 -166 -13 -9 -33 -13 -43 -9 -11 3 -52 48
-92 100 -77 100 -89 137 -54 162 39 28 65 12 141 -87z"/>
<path d="M1456 2428 c-11 -15 -16 -45 -16 -88 0 -78 17 -110 60 -110 43 0 60
32 60 110 0 78 -17 110 -60 110 -18 0 -34 -8 -44 -22z m54 -89 c0 -37 -4 -58
-10 -54 -5 3 -10 31 -10 61 0 30 5 54 10 54 6 0 10 -27 10 -61z"/>
<path d="M200 1501 l0 -431 345 0 c190 0 345 3 345 7 0 4 -9 16 -19 27 -11 12
-155 201 -321 421 -236 313 -306 401 -326 403 l-24 3 0 -430z m97 294 c163
-207 502 -670 495 -677 -5 -5 -130 -7 -278 -6 l-269 3 -3 368 c-1 217 1 367 7
365 5 -1 27 -26 48 -53z"/>
<path d="M726 1504 l315 -417 104 -2 c58 -1 105 1 105 3 0 3 -8 14 -17 25 -10
10 -151 195 -313 410 l-296 392 -107 3 -106 3 315 -417z m-89 329 c93 -117
513 -683 513 -692 0 -6 -19 -11 -43 -11 -32 0 -49 6 -65 23 -32 34 -532 701
-532 710 0 4 22 7 48 7 44 0 51 -3 79 -37z"/>
<path d="M1465 735 c-22 -21 -25 -33 -25 -95 0 -76 19 -110 60 -110 41 0 60
34 60 110 0 62 -3 74 -25 95 -13 14 -29 25 -35 25 -6 0 -22 -11 -35 -25z m45
-90 c0 -30 -4 -55 -10 -55 -5 0 -10 25 -10 55 0 30 5 55 10 55 6 0 10 -25 10
-55z"/>
<path d="M1461 394 c-30 -38 -30 -155 -1 -184 11 -11 29 -20 40 -20 41 0 60
34 60 109 0 74 -23 121 -60 121 -10 0 -28 -12 -39 -26z m49 -95 c0 -37 -4 -58
-10 -54 -5 3 -10 31 -10 61 0 30 5 54 10 54 6 0 10 -27 10 -61z"/>
</g>
</svg>
