<?xml version="1.0" standalone="no"?>
<!DOCTYPE svg PUBLIC "-//W3C//DTD SVG 20010904//EN"
 "http://www.w3.org/TR/2001/REC-SVG-20010904/DTD/svg10.dtd">
<svg version="1.0" xmlns="http://www.w3.org/2000/svg"
 width="300.000000pt" height="300.000000pt" viewBox="0 0 300.000000 300.000000"
 preserveAspectRatio="xMidYMid meet">
<metadata>
Created by potrace 1.10, written by Peter Selinger 2001-2011
</metadata>
<g transform="translate(0.000000,300.000000) scale(0.100000,-0.100000)"
fill="#000000" stroke="none">
<path d="M1673 2964 c-61 -30 -117 -88 -147 -153 -21 -46 -21 -48 -24 -1060
l-2 -1013 -35 -41 c-53 -61 -78 -136 -83 -244 -6 -142 31 -236 133 -332 63
-59 147 -102 214 -108 43 -4 45 -3 27 11 -11 9 -25 16 -32 16 -7 0 -44 16 -83
36 -122 62 -199 166 -222 299 -17 97 6 200 63 285 22 34 44 78 49 98 5 20 9
474 9 1008 0 1076 -3 1022 66 1103 23 27 63 54 117 80 l82 40 -41 0 c-24 1
-60 -9 -91 -25z"/>
<path d="M1895 2950 c87 -41 144 -92 172 -155 17 -38 18 -102 21 -1048 l2
-1009 50 -74 c58 -89 75 -155 67 -265 -4 -58 -12 -90 -37 -139 -52 -103 -113
-154 -265 -222 -49 -22 -50 -22 -19 -25 73 -9 206 70 276 162 60 80 83 153 82
265 -1 112 -21 175 -84 257 l-40 53 -2 1017 -3 1018 -23 42 c-48 91 -155 164
-237 162 l-40 -1 80 -38z"/>
<path d="M1737 2896 c-60 -22 -96 -56 -127 -121 -19 -39 -19 -76 -20 -1042 0
-551 -3 -1010 -7 -1020 -4 -10 -23 -39 -43 -66 -55 -72 -73 -132 -68 -230 5
-99 31 -160 98 -226 74 -74 127 -96 240 -96 111 0 156 16 233 85 104 92 142
234 98 362 -22 64 -46 104 -78 133 l-23 20 -2 1020 -3 1020 -22 46 c-46 100
-171 152 -276 115z m178 -55 c23 -15 50 -45 63 -71 l22 -44 0 -1020 0 -1019
36 -35 c87 -85 114 -236 60 -345 -57 -117 -159 -181 -286 -181 -57 0 -86 6
-121 23 -71 34 -125 85 -156 149 -24 48 -28 69 -28 137 0 93 21 148 79 212
l36 40 2 1024 3 1024 25 43 c55 97 173 125 265 63z"/>
<path d="M1770 1730 c-20 -20 -20 -33 -20 -570 0 -359 -3 -550 -10 -550 -18 0
-87 -69 -100 -100 -7 -17 -11 -55 -8 -89 11 -160 191 -226 309 -114 59 56 74
135 40 209 -18 40 -76 94 -99 94 -9 0 -12 141 -12 553 0 524 -1 555 -18 570
-25 23 -58 21 -82 -3z m68 -577 l2 -541 45 -40 c55 -48 75 -85 75 -137 0 -84
-75 -151 -159 -143 -63 6 -105 37 -126 93 -27 69 -15 107 53 172 l57 54 3 532
c1 293 4 538 7 545 3 8 13 12 22 10 17 -3 18 -38 21 -545z"/>
<path d="M1746 499 c-50 -59 -20 -143 56 -156 33 -5 41 -2 73 30 45 45 47 83
6 126 -41 44 -98 44 -135 0z m117 -31 c17 -23 19 -31 9 -53 -6 -14 -23 -31
-37 -37 -55 -25 -110 58 -69 103 25 28 72 21 97 -13z"/>
<path d="M895 2480 c-20 -23 -23 -63 -5 -85 10 -13 49 -15 235 -15 186 0 225
2 235 15 18 22 15 62 -5 85 -17 19 -32 20 -230 20 -198 0 -213 -1 -230 -20z
m432 -36 c3 -9 0 -20 -8 -25 -8 -5 -95 -9 -194 -9 -99 0 -186 4 -194 9 -8 5
-11 16 -8 25 6 14 32 16 202 16 170 0 196 -2 202 -16z"/>
<path d="M1145 2230 c-20 -23 -23 -63 -5 -85 18 -22 202 -22 220 0 18 22 15
62 -5 85 -15 17 -31 20 -105 20 -74 0 -90 -3 -105 -20z m179 -30 c5 -6 4 -15
-4 -25 -13 -15 -101 -21 -134 -9 -22 8 -20 33 3 42 25 9 123 3 135 -8z"/>
<path d="M1145 1980 c-20 -23 -23 -63 -5 -85 18 -22 202 -22 220 0 18 22 15
62 -5 85 -15 17 -31 20 -105 20 -74 0 -90 -3 -105 -20z m174 -29 c13 -8 13
-12 1 -26 -11 -14 -27 -16 -77 -13 -68 4 -79 9 -70 33 5 11 22 15 69 15 35 0
69 -4 77 -9z"/>
<path d="M895 1730 c-20 -23 -23 -63 -5 -85 10 -13 49 -15 235 -15 186 0 225
2 235 15 18 22 15 62 -5 85 -17 19 -32 20 -230 20 -198 0 -213 -1 -230 -20z
m432 -36 c3 -9 0 -20 -8 -25 -8 -5 -98 -9 -201 -8 -157 0 -187 3 -192 16 -3 8
-4 19 0 24 3 5 93 9 200 9 169 0 195 -2 201 -16z"/>
<path d="M1145 1480 c-20 -23 -23 -63 -5 -85 18 -22 202 -22 220 0 18 22 15
62 -5 85 -15 17 -31 20 -105 20 -74 0 -90 -3 -105 -20z m185 -36 c0 -20 -33
-34 -84 -34 -54 0 -76 8 -76 26 0 22 31 29 99 26 44 -3 61 -8 61 -18z"/>
<path d="M1145 1230 c-20 -23 -23 -63 -5 -85 18 -22 202 -22 220 0 18 22 15
62 -5 85 -15 17 -31 20 -105 20 -74 0 -90 -3 -105 -20z m179 -35 c9 -23 -31
-38 -90 -33 -60 5 -69 10 -61 33 9 21 142 22 151 0z"/>
<path d="M895 980 c-20 -23 -23 -63 -5 -85 19 -22 451 -22 470 0 18 22 15 62
-5 85 -17 19 -32 20 -230 20 -198 0 -213 -1 -230 -20z m431 -32 c4 -6 -1 -17
-12 -25 -15 -11 -57 -13 -201 -11 -100 2 -185 6 -188 10 -4 4 -5 14 -2 23 6
13 35 15 201 15 136 0 197 -3 202 -12z"/>
</g>
</svg>
