 <svg  version="1.0" xmlns="http://www.w3.org/2000/svg"  width="300.000000pt" height="244.000000pt" viewBox="0 0 300.000000 244.000000"  preserveAspectRatio="xMidYMid meet">  <g transform="translate(0.000000,244.000000) scale(0.100000,-0.100000)" fill="#33ff99" stroke="none"> <path d="M1822 1938 c-5 -7 -22 -47 -36 -88 -29 -81 -53 -113 -94 -128 -197 -73 -205 -95 -58 -151 96 -37 120 -58 142 -125 54 -165 94 -169 145 -13 26 81 53 107 142 136 72 24 107 46 107 67 0 18 -50 49 -115 70 -80 27 -100 46 -130 127 -15 39 -34 82 -41 95 -16 24 -46 29 -62 10z m68 -84 c11 -30 20 -59 20 -64 0 -24 72 -87 112 -99 64 -19 108 -42 108 -56 0 -7 -40 -29 -89 -49 -74 -31 -93 -44 -115 -76 -15 -22 -24 -40 -22 -40 9 0 -40 -114 -51 -117 -6 -2 -28 37 -48 86 -21 50 -44 97 -53 103 -8 7 -51 29 -95 48 -44 20 -82 40 -84 45 -3 10 15 19 100 50 60 23 109 77 132 146 35 106 52 111 85 23z"/> <path d="M1173 1615 c-27 -19 -65 -100 -104 -222 -49 -151 -109 -211 -249 -253 -118 -35 -218 -84 -232 -115 -29 -63 27 -108 204 -165 176 -57 220 -99 278 -268 50 -146 80 -204 113 -222 24 -13 30 -13 54 0 38 21 61 65 109 207 62 179 106 227 259 274 84 26 192 74 217 96 23 21 23 75 0 96 -25 23 -134 71 -219 97 -142 43 -199 100 -248 250 -69 211 -117 270 -182 225z m66 -34 c24 -24 49 -80 86 -191 60 -181 108 -229 284 -287 68 -22 140 -51 181 -72 8 -5 16 -20 18 -35 3 -24 -3 -30 -72 -62 -42 -19 -104 -44 -139 -54 -152 -49 -216 -113 -268 -270 -17 -52 -44 -121 -60 -152 -26 -51 -33 -58 -59 -58 -25 0 -33 7 -54 48 -13 26 -38 90 -55 142 -64 190 -113 239 -301 298 -119 38 -179 69 -186 97 -8 33 14 50 116 88 41 15 84 31 95 36 11 5 40 15 65 22 31 9 62 31 101 69 57 57 55 52 140 279 30 79 57 121 79 121 6 0 19 -9 29 -19z"/> <path d="M2182 1415 c-7 -14 -12 -32 -12 -39 0 -20 -41 -52 -83 -66 -50 -16 -45 -40 13 -61 44 -16 53 -26 82 -93 20 -45 34 -42 53 13 18 56 21 59 80 81 54 21 57 45 8 60 -51 17 -68 33 -88 85 -19 51 -36 57 -53 20z m48 -61 c0 -15 41 -50 68 -59 31 -9 27 -17 -20 -40 -41 -20 -47 -27 -66 -75 -9 -24 -10 -24 -17 -5 -13 39 -22 50 -67 81 l-45 31 40 15 c42 15 50 23 67 72 10 28 11 28 25 10 8 -10 15 -24 15 -30z"/> </g> </svg> 