<?xml version="1.0" standalone="no"?>
<!DOCTYPE svg PUBLIC "-//W3C//DTD SVG 20010904//EN"
 "http://www.w3.org/TR/2001/REC-SVG-20010904/DTD/svg10.dtd">
<svg version="1.0" xmlns="http://www.w3.org/2000/svg"
 width="300.000000pt" height="300.000000pt" viewBox="0 0 300.000000 300.000000"
 preserveAspectRatio="xMidYMid meet">
<metadata>
Created by potrace 1.10, written by Peter Selinger 2001-2011
</metadata>
<g transform="translate(0.000000,300.000000) scale(0.100000,-0.100000)"
fill="#33ff99" stroke="none">
<path d="M578 2986 c-22 -11 -23 -17 -26 -168 l-2 -156 -53 -17 c-88 -28 -179
-82 -257 -151 -77 -68 -116 -92 -183 -114 -41 -13 -57 -38 -49 -77 15 -80 151
-33 319 110 56 48 191 127 217 127 3 0 6 -28 6 -62 l-1 -63 -48 -23 c-27 -12
-79 -49 -117 -83 -111 -98 -168 -127 -343 -177 -44 -13 -46 -93 -2 -107 28 -8
139 19 213 54 71 32 124 69 224 154 l69 58 3 -73 c3 -78 19 -108 56 -108 27 0
40 9 55 37 15 30 16 782 0 817 -13 28 -49 38 -81 22z m52 -426 c0 -364 -2
-411 -16 -417 -26 -10 -37 13 -35 72 0 31 -4 65 -9 76 -12 22 -42 25 -62 6
-50 -49 -189 -152 -238 -177 -70 -35 -197 -72 -222 -64 -15 4 -27 44 -14 44 2
0 33 7 68 16 107 27 197 78 304 174 27 25 68 54 90 65 71 36 74 41 74 120 0
89 -10 101 -66 81 -38 -13 -144 -72 -154 -85 -3 -3 -34 -30 -70 -59 -36 -29
-74 -61 -85 -70 -11 -9 -22 -16 -25 -15 -3 0 -15 -3 -27 -8 -13 -5 -35 -14
-49 -19 -34 -13 -64 -4 -64 19 0 12 14 22 41 31 51 17 119 60 180 114 56 50
88 76 94 76 2 0 26 13 52 28 26 15 68 34 93 41 85 25 90 35 90 192 0 151 3
169 31 169 18 0 19 -14 19 -410z"/>
<path d="M819 2993 c-38 -10 -39 -35 -39 -763 l0 -709 -27 -3 c-16 -2 -41 -2
-58 0 l-30 4 3 94 c3 89 2 95 -22 119 -30 30 -49 32 -76 5 -17 -17 -20 -33
-20 -100 0 -95 4 -96 -110 4 -90 79 -202 140 -307 166 -86 22 -110 19 -123
-16 -16 -41 3 -71 52 -84 135 -35 213 -76 324 -173 108 -94 215 -137 339 -137
129 0 230 43 356 150 71 61 205 140 235 140 5 0 8 -27 7 -61 l-1 -60 -50 -26
c-28 -14 -86 -57 -129 -94 -260 -229 -592 -224 -851 13 -63 56 -118 90 -185
113 -56 19 -85 13 -97 -21 -15 -38 3 -70 47 -85 59 -19 97 -44 181 -115 88
-75 171 -124 255 -150 l57 -18 0 -112 0 -111 -32 -7 c-67 -13 -194 -85 -276
-156 -52 -45 -109 -83 -156 -105 -75 -34 -86 -47 -78 -93 8 -41 45 -45 120
-15 62 24 162 88 177 113 14 23 119 93 180 120 l65 29 0 -64 0 -65 -49 -24
c-27 -14 -86 -57 -132 -96 -91 -78 -191 -131 -282 -151 -61 -13 -74 -22 -77
-54 -4 -40 0 -52 24 -63 56 -25 264 57 371 147 33 28 78 65 100 82 l40 30 5
-282 c5 -283 5 -283 28 -295 33 -17 69 -6 81 25 8 18 11 192 9 577 l-3 551 58
-1 57 -1 0 -552 c0 -387 3 -559 11 -577 14 -30 45 -39 79 -23 l25 12 5 283 5
283 40 -30 c22 -17 67 -54 100 -82 60 -50 194 -122 250 -133 l30 -6 -3 -136
c-2 -88 1 -146 8 -164 13 -32 48 -43 82 -26 22 11 23 17 26 159 l3 147 59 0
59 0 3 -147 c3 -142 4 -148 26 -159 34 -17 69 -6 82 26 7 18 10 76 8 164 l-3
136 30 6 c56 11 190 83 250 133 33 28 78 65 100 82 l40 30 3 -279 c3 -303 3
-304 57 -305 57 0 55 -24 55 593 l0 567 60 -1 60 -1 0 -443 0 -443 25 -24 c29
-30 35 -31 68 -4 26 20 27 21 29 181 l3 161 50 -42 c160 -133 248 -183 373
-214 71 -18 106 -10 116 26 11 44 -14 70 -88 88 -100 25 -180 69 -275 149 -46
39 -105 82 -132 96 l-49 24 0 66 c0 58 2 64 18 56 9 -5 40 -19 67 -32 51 -24
148 -91 160 -110 15 -25 115 -89 177 -113 73 -30 111 -26 121 12 11 44 -4 62
-79 96 -46 21 -104 60 -155 104 -80 69 -212 144 -276 157 l-33 7 0 111 0 112
58 18 c82 25 165 74 260 155 77 65 129 97 190 116 46 14 49 95 3 110 -46 14
-166 -45 -253 -123 -144 -132 -312 -193 -486 -178 -142 13 -249 62 -371 169
-40 35 -95 76 -123 90 l-50 26 -1 60 c-1 34 2 61 7 61 30 0 164 -79 235 -140
126 -107 227 -150 356 -150 124 0 231 43 339 137 91 79 177 130 261 154 102
30 112 35 117 61 12 69 -22 85 -127 58 -103 -26 -215 -87 -305 -166 -123 -107
-110 -140 -110 281 l0 366 28 -19 c15 -11 55 -44 89 -74 79 -69 155 -114 240
-143 139 -48 187 -41 185 26 -1 35 -23 59 -54 59 -34 0 -142 41 -198 75 -31
19 -87 61 -124 94 -38 34 -90 71 -117 83 l-48 23 -1 63 c0 34 3 62 6 62 28 0
165 -82 234 -140 160 -134 287 -175 302 -97 8 39 -8 64 -49 77 -67 22 -106 46
-183 114 -78 69 -169 123 -257 151 l-53 17 0 147 c0 166 -6 184 -60 184 -63 0
-60 34 -60 -754 l0 -718 -27 -3 c-16 -2 -43 -1 -60 1 l-33 3 0 723 c0 787 3
748 -55 748 -51 0 -55 -13 -55 -179 l0 -153 -42 -12 c-64 -17 -168 -72 -227
-121 -104 -85 -146 -118 -151 -118 -3 0 -4 118 -2 262 2 178 -1 270 -8 289
-13 31 -48 42 -82 25 l-23 -12 -3 -301 -2 -301 -30 -6 c-17 -3 -43 -3 -60 0
l-30 6 -2 301 -3 301 -23 12 c-34 17 -69 6 -82 -25 -7 -19 -10 -111 -8 -289 2
-144 1 -262 -2 -262 -5 0 -47 33 -151 118 -59 49 -163 104 -227 121 l-42 12 0
153 c0 111 -3 156 -12 164 -17 13 -49 20 -69 15z m1363 -754 l3 -721 25 -20
c32 -26 116 -21 137 8 10 14 13 152 13 727 0 467 4 715 10 728 9 16 14 17 30
6 18 -11 20 -23 20 -158 0 -138 1 -147 23 -166 12 -11 40 -26 62 -33 44 -13
120 -48 144 -67 9 -6 40 -31 69 -55 100 -81 127 -99 190 -128 62 -29 79 -53
43 -65 -22 -7 -110 26 -155 58 -41 29 -140 108 -146 117 -10 15 -126 78 -162
88 -51 14 -68 -6 -68 -83 0 -47 5 -64 22 -82 12 -13 27 -23 34 -23 13 0 139
-90 159 -113 42 -50 173 -119 268 -143 51 -12 67 -21 67 -34 0 -28 -26 -32
-93 -14 -128 32 -186 65 -331 186 -74 62 -99 70 -116 39 -6 -13 -10 -149 -10
-374 0 -340 1 -355 20 -372 18 -16 21 -17 44 -1 14 9 52 40 84 68 81 72 182
130 274 157 86 25 121 25 126 -1 2 -12 -5 -19 -25 -24 -15 -4 -32 -9 -38 -13
-5 -3 -21 -7 -35 -9 -52 -7 -168 -75 -259 -152 -109 -92 -189 -129 -293 -137
-135 -11 -250 28 -363 123 -90 76 -136 107 -208 140 -56 25 -59 25 -78 8 -15
-13 -19 -30 -19 -78 0 -34 4 -66 8 -72 4 -5 36 -28 72 -49 36 -22 82 -55 102
-74 21 -18 48 -41 60 -49 13 -9 25 -19 28 -22 12 -16 135 -74 180 -86 8 -2 33
-8 55 -13 22 -6 76 -11 120 -11 44 0 98 5 120 11 22 5 49 12 60 14 35 8 79 28
98 43 9 8 17 12 17 8 0 -3 12 1 28 11 38 25 39 26 112 88 73 63 188 125 231
125 28 0 36 -14 21 -36 -6 -9 -47 -29 -47 -23 0 1 -19 -8 -42 -19 -35 -18
-141 -101 -192 -150 -18 -17 -136 -76 -185 -92 -72 -23 -76 -31 -76 -156 0
-128 4 -135 92 -162 46 -15 164 -75 178 -91 35 -41 152 -127 206 -153 38 -17
72 -36 76 -42 22 -32 -39 -34 -113 -4 -30 12 -56 25 -59 28 -3 3 -26 22 -52
43 -26 21 -53 43 -60 50 -53 50 -193 127 -230 127 -25 0 -38 -31 -38 -90 0
-67 11 -85 71 -115 27 -14 77 -49 112 -78 94 -80 133 -108 140 -100 4 3 7 2 7
-4 0 -12 77 -44 163 -68 44 -13 57 -21 55 -33 -5 -24 -42 -26 -112 -7 -57 16
-182 72 -209 95 -6 5 -34 29 -61 52 -26 24 -66 55 -89 71 -38 25 -41 26 -58
11 -16 -15 -19 -37 -21 -173 -3 -143 -5 -156 -22 -159 -10 -2 -22 2 -27 10 -5
7 -9 208 -9 447 0 498 5 471 -85 471 -94 0 -88 42 -93 -603 -3 -390 -8 -564
-15 -569 -6 -4 -17 -2 -24 4 -10 8 -13 72 -13 277 0 225 -2 270 -16 289 -14
21 -16 21 -46 6 -17 -9 -52 -35 -77 -58 -88 -80 -160 -123 -276 -167 -39 -15
-56 -27 -60 -42 -2 -12 -6 -85 -9 -162 -3 -77 -5 -141 -5 -142 -2 -8 -41 -1
-46 7 -3 6 -6 68 -6 139 0 162 -5 171 -89 171 -84 0 -89 -9 -89 -171 0 -71 -3
-133 -6 -139 -5 -8 -44 -15 -46 -7 0 1 -2 65 -5 142 -3 77 -7 150 -9 162 -4
16 -21 27 -63 43 -98 37 -186 88 -256 150 -37 33 -80 67 -95 75 -26 13 -30 13
-45 -4 -14 -15 -16 -52 -16 -282 0 -145 -4 -270 -9 -278 -5 -8 -16 -11 -24 -8
-12 5 -15 86 -19 566 -5 643 1 601 -93 601 -94 0 -88 42 -93 -603 -3 -389 -8
-564 -15 -569 -6 -4 -17 -2 -24 4 -10 8 -13 72 -13 278 0 244 -2 269 -18 288
l-18 21 -36 -22 c-20 -12 -62 -46 -94 -75 -115 -105 -360 -199 -381 -147 -8
21 -5 23 73 45 104 30 179 72 278 154 48 41 109 85 135 98 l46 23 0 79 c0 104
-9 110 -100 67 -62 -30 -119 -66 -153 -98 -7 -7 -34 -29 -60 -50 -26 -21 -49
-40 -52 -43 -10 -12 -114 -50 -134 -50 -28 0 -47 13 -38 26 4 6 37 25 74 42
67 31 76 38 181 130 33 28 66 52 73 52 8 0 14 4 14 9 0 5 8 11 18 14 63 20
156 60 168 71 19 19 20 249 2 263 -7 5 -35 18 -63 28 -27 10 -68 27 -90 38
-22 12 -43 21 -47 22 -3 0 -17 9 -30 20 -110 96 -164 137 -200 156 -24 12 -45
22 -48 22 -21 -2 -50 20 -50 37 0 16 7 20 29 20 42 0 170 -69 226 -121 26 -24
54 -48 63 -53 10 -5 19 -12 22 -15 10 -13 60 -41 60 -35 0 4 8 0 18 -8 22 -19
98 -49 106 -41 3 3 13 0 21 -7 22 -18 207 -25 265 -11 25 7 56 14 70 17 26 5
161 71 170 83 3 4 15 14 28 23 12 8 39 31 60 50 20 18 66 52 102 73 36 22 68
44 72 50 4 5 8 38 8 72 0 70 -17 98 -54 87 -26 -8 -133 -61 -149 -74 -7 -5
-43 -36 -82 -68 -94 -78 -147 -108 -229 -127 -89 -21 -182 -17 -261 10 -69 24
-97 42 -192 120 -33 27 -72 58 -85 68 -34 27 -138 75 -173 80 -16 2 -47 12
-69 21 -32 13 -37 18 -26 31 7 8 23 15 35 15 33 0 153 -37 200 -62 57 -30 168
-108 178 -124 4 -7 29 -28 54 -45 l46 -32 19 23 c13 17 18 39 18 91 0 56 3 70
18 78 33 18 42 -6 42 -110 0 -90 2 -99 22 -113 31 -22 100 -20 129 3 l24 19 3
708 c1 390 3 717 2 727 0 22 36 23 44 1 3 -9 6 -77 6 -153 0 -156 5 -166 85
-191 75 -24 170 -80 244 -144 99 -86 115 -94 138 -71 16 17 18 43 20 284 3
261 5 291 20 291 32 -1 34 -16 33 -308 0 -280 0 -292 20 -312 15 -15 33 -20
70 -20 37 0 55 5 70 20 20 20 20 32 20 312 -1 290 1 307 32 308 17 0 19 -35
18 -274 -1 -252 5 -301 34 -312 15 -6 85 43 166 115 25 22 48 41 53 41 4 0 26
12 48 26 23 14 65 33 93 41 93 27 96 34 96 203 0 99 4 150 12 158 34 34 36 5
40 -729z"/>
<path d="M2046 2554 c-22 -8 -47 -21 -55 -28 -9 -8 -19 -14 -23 -13 -4 1 -17
-6 -28 -15 -11 -10 -23 -18 -26 -18 -3 0 -34 -24 -67 -53 -60 -52 -127 -102
-137 -102 -3 -1 -27 -10 -55 -20 -38 -15 -74 -20 -155 -20 -158 0 -199 19
-409 190 -30 24 -57 43 -60 42 -3 -1 -18 7 -32 16 -36 24 -95 33 -114 17 -10
-9 -15 -31 -15 -74 0 -52 4 -66 23 -84 13 -12 29 -22 35 -22 14 0 82 -48 132
-93 50 -46 107 -87 119 -87 6 0 11 -5 11 -11 0 -5 5 -7 10 -4 6 3 10 2 10 -3
0 -27 184 -73 290 -73 101 0 270 40 270 64 0 4 5 5 10 2 6 -3 10 -1 10 5 0 6
5 8 10 5 6 -3 10 -1 10 4 0 6 5 11 11 11 12 0 69 41 119 87 52 47 118 93 133
93 8 0 21 8 30 18 31 34 20 185 -12 181 -4 0 -24 -7 -45 -15z m-1070 -44 c67
-30 112 -61 199 -138 93 -82 198 -122 325 -122 127 0 232 40 325 122 87 77
132 108 199 138 36 17 68 30 71 30 3 0 5 -28 5 -62 l-1 -63 -47 -22 c-27 -13
-77 -48 -112 -79 -147 -128 -280 -184 -440 -184 -160 0 -293 56 -440 184 -35
31 -85 66 -112 79 l-47 22 -1 63 c0 34 2 62 5 62 3 0 35 -13 71 -30z"/>
<path d="M882 2298 c-9 -9 -12 -106 -12 -373 0 -340 1 -363 19 -379 18 -16 51
-13 51 5 0 5 5 9 11 9 6 0 27 16 47 35 21 19 46 44 58 55 12 11 26 20 33 20 6
0 11 4 11 9 0 5 8 11 18 15 9 3 35 16 58 29 22 13 62 29 88 37 79 22 86 36 86
165 0 121 -5 135 -60 149 -76 21 -211 99 -268 155 -42 41 -97 81 -113 81 -8 0
-20 -5 -27 -12z m136 -100 c74 -65 156 -113 237 -142 l67 -23 0 -109 0 -108
-49 -17 c-98 -33 -182 -84 -280 -170 -103 -90 -93 -121 -93 296 l0 366 31 -22
c17 -12 56 -44 87 -71z"/>
<path d="M2040 2282 c-19 -15 -48 -39 -64 -54 -61 -59 -190 -133 -266 -154
-55 -14 -60 -28 -60 -149 0 -98 2 -114 20 -133 12 -12 27 -23 35 -23 38 -3
122 -41 171 -76 17 -13 34 -23 39 -23 4 0 17 -9 29 -20 42 -42 102 -93 125
-108 22 -15 25 -15 42 7 18 22 19 45 19 375 -1 308 -3 353 -17 368 -21 24 -32
22 -73 -10z m58 -538 l-3 -187 -50 42 c-148 122 -263 192 -340 207 l-30 5 2
111 2 111 66 23 c79 28 166 79 232 137 26 24 64 55 83 70 l35 26 3 -179 c1
-98 1 -263 0 -366z"/>
<path d="M1441 2038 c-10 -3 -21 -14 -25 -23 -3 -9 -6 -315 -6 -679 1 -659 1
-664 21 -682 29 -26 109 -26 138 0 20 18 20 23 21 686 0 523 -3 670 -13 684
-13 18 -101 27 -136 14z m119 -695 l0 -673 -60 0 -60 0 0 673 0 672 60 0 60 0
0 -672z"/>
<path d="M1239 1414 c-30 -25 -59 -51 -64 -57 -29 -34 -156 -103 -230 -127
-72 -23 -75 -29 -75 -155 0 -130 2 -133 95 -165 86 -30 171 -81 248 -149 86
-77 99 -84 123 -66 18 13 19 31 18 374 -2 374 -4 391 -43 391 -10 0 -42 -21
-72 -46z m86 -339 c0 -201 -2 -365 -5 -365 -3 0 -36 27 -75 61 -117 102 -232
170 -312 185 l-33 6 0 112 0 112 58 18 c85 26 173 79 270 162 47 41 88 74 91
74 4 0 6 -164 6 -365z"/>
<path d="M1663 1448 c-15 -19 -25 -344 -17 -554 9 -247 11 -249 139 -135 78
69 178 130 251 152 82 25 84 30 84 167 l0 119 -32 15 c-18 9 -70 33 -116 54
-46 21 -90 46 -99 56 -9 10 -22 18 -29 18 -7 0 -14 4 -16 10 -6 18 -122 110
-139 110 -9 0 -21 -6 -26 -12z m116 -87 c92 -79 221 -154 289 -167 l32 -6 0
-113 0 -113 -32 -6 c-81 -15 -196 -83 -313 -185 -38 -34 -72 -61 -75 -61 -3 0
-5 164 -5 365 0 201 2 365 5 365 3 0 47 -36 99 -79z"/>
<path d="M880 851 c-13 -25 -13 -117 0 -141 6 -10 36 -33 68 -50 31 -16 69
-40 83 -53 14 -12 48 -41 75 -64 58 -51 134 -90 239 -125 84 -27 326 -11 373
25 6 5 12 6 12 3 0 -10 110 50 145 79 17 14 52 44 79 67 26 24 74 57 105 73
l56 30 0 79 c0 108 -8 112 -117 58 -50 -25 -113 -68 -158 -108 -93 -82 -171
-122 -271 -136 -149 -22 -279 21 -409 136 -72 64 -213 146 -251 146 -10 0 -23
-9 -29 -19z m193 -93 c24 -18 69 -54 99 -80 195 -169 461 -169 656 0 88 76
140 112 208 143 l64 28 0 -64 0 -63 -43 -21 c-24 -12 -83 -55 -133 -97 -103
-87 -198 -136 -306 -158 -97 -20 -139 -20 -236 0 -103 21 -203 70 -282 139
-76 67 -138 111 -174 125 -24 9 -26 14 -26 74 l0 65 64 -28 c35 -16 84 -44
109 -63z"/>
<path d="M567 1972 c-10 -10 -17 -27 -17 -38 1 -61 88 -78 109 -22 22 59 -51
106 -92 60z m62 -31 c12 -21 5 -31 -21 -31 -23 0 -36 29 -17 41 20 13 27 11
38 -10z"/>
<path d="M2368 109 c-45 -25 -46 -83 -2 -99 71 -27 117 67 48 98 -29 14 -25
14 -46 1z m45 -50 c3 -13 0 -22 -10 -26 -18 -7 -48 21 -39 36 12 18 43 12 49
-10z"/>
</g>
</svg>
