<?xml version="1.0" standalone="no"?>
<!DOCTYPE svg PUBLIC "-//W3C//DTD SVG 20010904//EN"
 "http://www.w3.org/TR/2001/REC-SVG-20010904/DTD/svg10.dtd">
<svg version="1.0" xmlns="http://www.w3.org/2000/svg"
 width="300.000000pt" height="300.000000pt" viewBox="0 0 300.000000 300.000000"
 preserveAspectRatio="xMidYMid meet">
<metadata>
Created by potrace 1.10, written by Peter Selinger 2001-2011
</metadata>
<g transform="translate(0.000000,300.000000) scale(0.100000,-0.100000)"
fill="#33ff99" stroke="none">
<path d="M716 2841 c-16 -18 -17 -47 -14 -363 4 -314 6 -350 27 -423 65 -239
218 -425 434 -525 70 -33 204 -70 254 -70 l33 0 0 -393 0 -393 -100 -83 c-133
-110 -166 -127 -274 -141 -106 -13 -139 -26 -191 -71 -66 -59 -109 -191 -73
-227 17 -17 1359 -17 1376 0 36 36 -7 168 -73 227 -51 45 -85 57 -191 72 -49
7 -102 18 -117 24 -15 6 -80 54 -143 105 l-114 94 0 393 0 393 33 0 c50 0 184
37 254 70 216 100 369 286 434 525 21 73 23 109 27 423 3 316 2 345 -14 363
-17 18 -39 19 -784 19 -745 0 -767 -1 -784 -19z m1538 -20 c3 -5 6 -162 6
-350 1 -379 -4 -417 -64 -541 -81 -166 -190 -279 -340 -355 -88 -44 -221 -85
-276 -85 -52 0 -57 -18 -64 -228 -10 -272 2 -587 23 -610 40 -45 226 -194 259
-207 20 -9 70 -20 112 -26 113 -15 164 -35 204 -79 37 -41 60 -100 54 -140
l-3 -25 -665 0 -665 0 -3 25 c-2 13 1 41 8 63 12 42 74 117 96 117 8 0 14 4
14 8 0 5 6 9 13 10 38 3 188 32 222 42 22 7 71 38 108 69 38 31 87 71 110 89
83 65 77 28 77 465 0 428 0 427 -60 427 -44 0 -192 41 -253 71 -224 108 -380
313 -422 555 -20 115 -22 699 -2 707 22 9 1506 7 1511 -2z"/>
<path d="M787 2782 c-24 -27 -25 -293 -1 -316 14 -14 92 -16 713 -16 663 0
699 1 714 18 14 15 17 42 17 159 0 123 -2 142 -18 156 -17 16 -81 17 -714 17
-660 0 -696 -1 -711 -18z m1413 -157 l0 -145 -700 0 -700 0 0 145 0 145 700 0
700 0 0 -145z"/>
<path d="M902 2658 c-15 -15 -15 -51 0 -66 14 -14 325 -17 347 -3 7 5 14 21
14 36 0 15 -7 31 -14 36 -22 14 -333 11 -347 -3z m328 -33 c0 -13 -21 -15
-152 -13 -110 2 -152 6 -156 16 -3 9 32 12 152 12 133 0 156 -2 156 -15z"/>
<path d="M1372 2658 c-28 -28 -7 -78 33 -78 27 0 45 18 45 45 0 27 -18 45 -45
45 -12 0 -26 -5 -33 -12z m46 -37 c3 -8 -1 -12 -9 -9 -7 2 -15 10 -17 17 -3 8
1 12 9 9 7 -2 15 -10 17 -17z"/>
</g>
</svg>
