 <svg  version="1.0" xmlns="http://www.w3.org/2000/svg"  width="300.000000pt" height="300.000000pt" viewBox="0 0 300.000000 300.000000"  preserveAspectRatio="xMidYMid meet">  <g transform="translate(0.000000,300.000000) scale(0.100000,-0.100000)" fill="#33ff99" stroke="none"> <path d="M1898 2618 c-22 -18 -140 -215 -241 -404 -204 -380 -342 -728 -404 -1024 -22 -103 -27 -152 -27 -280 l-1 -155 33 -67 c35 -71 63 -97 125 -117 76 -25 163 14 193 86 8 18 14 60 14 94 0 53 -5 71 -41 137 -39 69 -42 82 -47 166 -16 311 126 815 374 1325 52 106 94 200 94 207 0 12 -37 44 -50 44 -4 0 -13 -6 -22 -12z m-40 -175 c-168 -358 -252 -584 -352 -948 -3 -11 -3 7 -1 40 6 75 -7 101 -23 48 -48 -157 -75 -350 -70 -513 l3 -128 43 -82 c64 -124 54 -200 -27 -200 -161 0 -156 374 13 867 41 121 25 131 -29 19 -19 -39 -34 -68 -35 -65 0 9 56 170 90 254 47 120 176 382 264 540 80 143 162 275 170 275 3 0 -18 -48 -46 -107z"/> <path d="M1238 2568 c-9 -8 -18 -36 -21 -65 -11 -101 -47 -137 -154 -157 -76 -14 -94 -33 -69 -72 13 -18 25 -24 54 -24 51 0 122 -38 144 -76 10 -17 21 -53 24 -80 8 -60 18 -74 55 -74 30 0 33 6 43 80 4 25 16 60 26 78 24 39 89 71 142 72 36 0 68 20 68 44 0 26 -27 43 -87 54 -34 6 -73 18 -86 27 -32 21 -55 70 -63 132 -6 46 -24 73 -49 73 -6 0 -18 -6 -27 -12z m60 -151 c19 -47 56 -79 118 -103 l46 -17 -49 -19 c-67 -25 -109 -68 -130 -135 l-17 -55 -18 53 c-23 67 -69 115 -130 137 -46 16 -47 17 -25 29 12 7 30 12 40 13 32 0 102 81 117 135 13 45 14 47 23 24 5 -13 16 -41 25 -62z"/> <path d="M1237 2371 c-34 -22 -56 -51 -57 -73 0 -21 63 -88 83 -88 26 0 87 60 87 84 -1 24 -24 55 -60 79 -24 15 -27 15 -53 -2z m58 -103 l-30 -27 -28 28 -29 28 29 29 28 29 30 -30 30 -29 -30 -28z"/> <path d="M813 1908 c-6 -7 -13 -38 -17 -68 -16 -123 -75 -184 -194 -196 -69 -8 -85 -20 -80 -61 3 -26 7 -28 63 -35 88 -11 120 -25 158 -67 33 -36 57 -105 57 -161 0 -35 12 -50 40 -50 37 0 46 14 54 85 13 116 74 176 196 191 64 8 80 18 80 49 0 32 -17 41 -83 48 -32 3 -76 16 -99 29 -54 29 -88 88 -95 165 -7 66 -16 83 -48 83 -12 0 -27 -6 -32 -12z m81 -204 c23 -39 73 -73 139 -94 l52 -17 -55 -16 c-85 -25 -137 -76 -165 -162 l-23 -70 -12 45 c-27 102 -81 157 -184 190 l-40 13 63 22 c93 34 132 78 161 185 l13 45 17 -56 c9 -31 25 -69 34 -85z"/> <path d="M803 1689 c-32 -20 -73 -76 -73 -98 0 -21 52 -81 82 -97 16 -8 37 -12 48 -9 25 8 100 91 100 110 0 20 -92 115 -111 115 -8 0 -28 -10 -46 -21z m85 -131 c-21 -21 -38 -43 -38 -48 0 -6 -20 11 -44 36 l-45 46 41 42 42 42 41 -41 41 -40 -38 -37z"/> <path d="M1988 1818 c-9 -8 -18 -36 -21 -65 -11 -101 -47 -137 -154 -157 -76 -14 -94 -33 -69 -72 13 -18 25 -24 54 -24 51 0 122 -38 144 -76 10 -17 21 -53 24 -80 8 -60 18 -74 55 -74 30 0 33 6 43 80 4 25 16 60 26 78 24 39 89 71 142 72 36 0 68 20 68 44 0 26 -27 43 -87 54 -34 6 -73 18 -86 27 -32 21 -55 70 -63 132 -6 46 -24 73 -49 73 -6 0 -18 -6 -27 -12z m42 -104 c0 -22 35 -86 58 -107 11 -10 47 -29 79 -43 32 -13 49 -24 38 -24 -31 -1 -97 -34 -127 -65 -15 -15 -36 -52 -45 -82 l-17 -55 -18 53 c-23 67 -69 115 -130 137 l-48 17 59 26 c63 29 101 70 121 132 11 35 30 43 30 11z"/> <path d="M1987 1621 c-35 -22 -56 -51 -57 -74 0 -23 62 -87 84 -87 25 0 86 60 86 84 0 25 -25 57 -60 79 -24 15 -28 15 -53 -2z m58 -103 l-30 -27 -28 28 -29 28 29 29 28 29 30 -30 30 -29 -30 -28z"/> <path d="M825 1148 c-79 -15 -154 -19 -358 -21 -276 -2 -276 -2 -277 -53 0 -44 14 -46 287 -42 209 4 282 9 387 28 101 18 133 20 153 11 l25 -11 -7 -113 c-15 -261 67 -447 234 -530 61 -30 73 -32 166 -32 120 0 172 21 247 97 70 72 92 137 93 270 0 106 0 107 -42 188 -24 45 -43 87 -43 94 0 7 9 21 20 31 19 17 24 17 147 -5 116 -21 166 -24 526 -27 421 -5 427 -4 427 41 -1 52 10 51 -402 52 -352 0 -394 2 -523 24 -158 26 -199 23 -240 -18 -58 -58 -60 -116 -5 -215 112 -205 20 -428 -184 -444 -91 -8 -157 16 -222 81 -86 87 -124 239 -102 414 8 72 7 87 -9 120 -25 50 -83 82 -148 80 -27 0 -95 -9 -150 -20z"/> </g> </svg> 