<?xml version="1.0" standalone="no"?>
<!DOCTYPE svg PUBLIC "-//W3C//DTD SVG 20010904//EN"
 "http://www.w3.org/TR/2001/REC-SVG-20010904/DTD/svg10.dtd">
<svg version="1.0" xmlns="http://www.w3.org/2000/svg"
 width="300.000000pt" height="300.000000pt" viewBox="0 0 300.000000 300.000000"
 preserveAspectRatio="xMidYMid meet">
<metadata>
Created by potrace 1.10, written by Peter Selinger 2001-2011
</metadata>
<g transform="translate(0.000000,300.000000) scale(0.100000,-0.100000)"
fill="#33ff99" stroke="none">
<path d="M1705 2933 c-49 -18 -100 -48 -141 -85 -20 -18 -21 -18 -40 3 -10 12
-31 27 -46 35 -32 17 -111 18 -141 3 -31 -16 -1255 -1238 -1273 -1271 -30 -58
-9 -157 43 -197 l24 -19 -41 -58 c-22 -31 -40 -67 -40 -78 0 -13 27 -49 70
-91 l69 -69 3 -461 3 -462 27 -39 c43 -61 90 -88 163 -92 48 -3 70 0 102 16
51 27 99 81 112 129 6 21 11 129 11 240 l0 201 26 31 c28 33 75 42 115 21 26
-14 49 -62 49 -102 0 -38 33 -98 70 -126 31 -23 84 -42 120 -42 42 0 123 46
150 87 l25 37 3 560 2 561 334 335 c183 184 341 346 350 360 19 28 22 111 5
143 -6 12 -34 45 -61 73 l-50 51 28 22 c52 41 68 32 207 -107 95 -95 127 -134
127 -152 0 -19 -73 -104 -290 -340 -192 -209 -300 -334 -320 -372 -59 -109
-60 -240 -3 -352 14 -28 63 -90 109 -137 l84 -85 0 -118 0 -119 59 -58 c32
-33 68 -59 78 -59 24 0 53 -30 53 -55 0 -26 425 -452 459 -460 35 -9 51 -24
51 -47 0 -11 25 -46 57 -79 l56 -59 71 0 71 0 153 153 152 152 0 68 0 68 -52
55 c-28 30 -63 57 -77 61 -36 8 -48 19 -56 51 -7 32 -431 462 -455 462 -27 0
-57 28 -63 58 -3 16 -28 49 -61 80 l-55 52 -118 0 -118 0 -79 79 c-97 97 -101
119 -39 184 91 96 491 532 522 571 18 22 45 66 60 96 22 47 26 68 26 150 0 87
-3 101 -33 165 -28 58 -55 92 -162 198 -159 158 -215 189 -350 194 -63 3 -98
-1 -135 -14z m271 -46 c46 -18 80 -46 189 -154 157 -156 186 -204 193 -318 8
-127 -25 -200 -153 -337 -33 -36 -87 -93 -119 -129 -58 -63 -135 -147 -226
-244 -144 -155 -150 -163 -150 -207 0 -39 5 -47 88 -130 l88 -88 116 0 116 0
46 -46 c25 -25 53 -60 60 -79 14 -32 61 -73 72 -63 9 10 433 -423 451 -460 10
-21 31 -43 49 -52 18 -8 53 -33 78 -54 45 -39 46 -41 46 -102 l0 -62 -142
-141 -143 -141 -58 0 c-55 0 -60 2 -107 46 -28 26 -50 54 -50 63 0 28 -29 60
-68 77 -48 19 -443 416 -457 459 -7 20 -25 37 -57 55 -26 14 -63 42 -82 62
l-36 37 0 115 0 115 -86 88 c-117 120 -146 179 -146 303 0 74 5 100 25 143 21
47 113 162 202 252 45 46 227 243 276 300 24 27 57 62 73 76 45 43 66 81 66
123 0 37 -8 47 -127 168 -70 71 -138 131 -150 135 -13 3 -34 2 -48 -1 -27 -7
-75 -54 -75 -74 0 -7 18 -32 41 -55 23 -23 47 -51 54 -62 19 -28 25 -83 14
-114 -6 -14 -165 -181 -355 -371 l-344 -346 0 -554 c0 -548 0 -555 -21 -590
-27 -43 -43 -56 -95 -70 -95 -27 -186 36 -198 137 -10 86 -55 133 -126 133
-32 0 -48 -7 -78 -34 l-37 -34 -5 -229 c-5 -209 -7 -231 -26 -268 -47 -86
-168 -113 -255 -55 -81 53 -79 40 -79 550 l0 450 -70 73 c-38 39 -70 77 -70
84 0 6 16 35 35 64 34 52 43 84 27 91 -4 2 -20 19 -35 39 -28 38 -36 95 -18
141 10 28 1201 1222 1246 1249 57 36 132 21 193 -38 15 -14 16 -14 82 33 41
28 101 55 155 68 40 10 156 -5 211 -27z"/>
<path d="M1750 2881 c-68 -21 -160 -87 -160 -114 0 -14 60 -86 81 -97 15 -8
28 -3 64 25 38 29 55 35 95 35 53 0 76 -17 227 -169 106 -107 113 -117 113
-170 0 -57 -10 -72 -136 -207 -400 -428 -444 -479 -480 -551 -34 -67 -36 -76
-32 -145 5 -67 13 -95 54 -169 7 -15 46 -56 84 -93 58 -55 74 -65 89 -57 26
15 81 79 81 96 0 8 -25 41 -57 72 -138 141 -138 187 1 332 96 100 118 124 165
177 24 27 71 78 105 114 33 36 96 103 140 149 103 110 136 178 136 281 0 113
-26 159 -168 303 -124 126 -165 158 -234 182 -45 16 -126 18 -168 6z m171 -38
c47 -15 72 -35 191 -151 158 -155 182 -195 182 -302 1 -93 -31 -152 -145 -275
-516 -556 -509 -549 -509 -612 0 -53 17 -82 95 -163 l75 -76 -38 -37 -39 -38
-69 73 c-94 99 -109 132 -109 238 0 71 4 92 25 132 14 26 147 178 295 339 149
161 282 310 298 332 37 54 37 119 1 172 -35 52 -253 265 -282 276 -13 5 -45 9
-72 9 -40 0 -56 -6 -93 -34 l-45 -34 -37 38 -37 38 37 28 c46 35 127 63 181
64 23 0 66 -8 95 -17z"/>
<path d="M743 2217 l-623 -623 0 -47 0 -47 167 -169 c93 -93 178 -174 190
-180 58 -29 41 -45 698 614 387 386 627 634 631 650 3 14 1 38 -5 53 -7 15
-90 105 -185 200 -164 163 -175 172 -212 172 -38 0 -53 -15 -661 -623z m864
421 c147 -147 173 -177 173 -203 0 -26 -75 -104 -602 -633 -332 -332 -616
-610 -631 -618 -16 -9 -37 -12 -49 -8 -12 3 -97 83 -190 176 -134 135 -168
174 -168 196 0 22 107 133 618 644 540 541 621 618 647 618 25 0 56 -26 202
-172z"/>
<path d="M828 1363 c-205 -203 -249 -242 -280 -248 -52 -10 -87 0 -137 40 -43
34 -44 35 -73 17 -16 -9 -42 -29 -58 -44 l-30 -27 0 -431 c0 -476 -1 -471 64
-528 64 -56 156 -38 204 39 18 31 21 56 26 259 6 210 8 227 29 257 46 68 159
87 224 38 37 -29 63 -78 63 -120 0 -57 55 -122 111 -131 43 -7 97 27 121 76
16 32 18 78 18 516 0 460 -1 483 -19 505 l-19 24 -244 -242z m252 -288 l0
-495 -28 -31 c-39 -44 -95 -44 -134 0 -18 20 -28 43 -28 64 -1 77 -64 157
-141 177 -75 20 -165 -17 -205 -86 -23 -39 -24 -47 -24 -248 0 -232 -6 -262
-62 -296 -40 -24 -69 -25 -113 -4 -65 30 -65 34 -65 513 l0 430 45 31 46 32
19 -25 c42 -53 130 -72 194 -42 17 8 135 118 261 245 126 126 231 230 232 230
2 0 3 -223 3 -495z"/>
<path d="M161 1325 c-17 -20 -31 -42 -31 -51 0 -19 88 -114 107 -114 29 0 73
31 79 56 6 21 -2 34 -42 76 -71 72 -77 74 -113 33z m117 -117 c-32 -25 -37
-23 -84 23 l-43 42 22 29 21 28 53 -52 53 -53 -22 -17z"/>
<path d="M1824 1186 l-64 -64 0 -60 c0 -77 18 -96 56 -61 62 57 175 172 189
191 23 34 -4 58 -68 58 -47 0 -52 -3 -113 -64z m67 -73 l-106 -108 -3 49 c-3
48 -2 51 55 108 55 56 59 58 109 58 l51 0 -106 -107z"/>
<path d="M1940 1065 c-85 -86 -157 -158 -159 -160 -11 -13 14 -54 49 -78 29
-21 46 -26 62 -21 13 4 85 69 160 145 122 122 138 142 138 172 0 24 -9 41 -33
65 -18 18 -40 32 -48 32 -8 0 -84 -70 -169 -155z m195 108 c14 -16 27 -35 30
-43 3 -11 -43 -63 -136 -157 -152 -153 -151 -152 -206 -105 l-22 19 152 155
c84 85 153 156 155 157 2 0 14 -11 27 -26z"/>
<path d="M2076 921 c-140 -140 -148 -150 -141 -179 4 -22 63 -87 208 -232 111
-111 215 -208 230 -217 35 -18 21 -28 199 149 137 136 153 159 129 196 -11 19
-379 389 -410 413 -44 35 -59 26 -215 -130z m396 -88 c114 -115 208 -215 210
-223 2 -9 -56 -75 -137 -156 -116 -116 -144 -140 -160 -133 -28 10 -425 412
-425 429 0 20 271 290 290 290 8 0 108 -93 222 -207z"/>
<path d="M2598 413 c-158 -157 -166 -171 -130 -224 34 -51 73 -79 111 -79 33
0 47 11 169 133 130 131 132 134 132 178 0 39 -5 50 -37 81 -36 34 -73 58 -89
58 -4 0 -74 -66 -156 -147z m225 69 c60 -58 55 -69 -90 -214 -146 -146 -157
-151 -215 -91 -19 21 -38 45 -41 53 -7 22 271 300 292 293 9 -3 33 -22 54 -41z"/>
</g>
</svg>
