<?xml version="1.0" standalone="no"?>
<!DOCTYPE svg PUBLIC "-//W3C//DTD SVG 20010904//EN"
 "http://www.w3.org/TR/2001/REC-SVG-20010904/DTD/svg10.dtd">
<svg version="1.0" xmlns="http://www.w3.org/2000/svg"
 width="300.000000pt" height="300.000000pt" viewBox="0 0 300.000000 300.000000"
 preserveAspectRatio="xMidYMid meet">
<metadata>
Created by potrace 1.10, written by Peter Selinger 2001-2011
</metadata>
<g transform="translate(0.000000,300.000000) scale(0.100000,-0.100000)"
fill="#33ff99" stroke="none">
<path d="M2136 2936 c-86 -32 -139 -114 -135 -208 l3 -60 -133 -77 -134 -78
-195 114 c-107 63 -215 125 -240 138 l-45 24 -36 -19 c-20 -11 -135 -77 -256
-147 l-220 -128 -3 -280 -3 -280 -132 -75 -132 -75 -49 32 c-115 77 -273 19
-312 -115 -59 -201 176 -352 335 -216 51 44 75 105 69 179 -3 30 -2 55 2 55 3
0 62 33 131 73 l126 73 219 -126 219 -127 3 -276 2 -276 28 -19 c15 -10 123
-74 240 -141 l212 -123 0 -153 0 -153 -53 -26 c-56 -27 -86 -60 -105 -115 -40
-117 29 -242 149 -271 149 -36 290 108 250 256 -14 53 -71 118 -121 138 l-41
16 3 156 3 157 235 136 235 136 3 280 3 280 134 76 c118 67 136 75 147 61 23
-27 91 -52 146 -52 190 -1 279 233 136 358 -51 46 -118 66 -174 53 -115 -26
-177 -111 -168 -227 3 -30 2 -54 -2 -54 -3 0 -63 -33 -133 -74 l-127 -74 -220
126 -220 127 0 255 0 255 132 76 132 76 42 -30 c119 -84 290 -18 324 123 14
58 7 100 -26 157 -46 79 -162 121 -248 89z m155 -41 c60 -28 89 -78 89 -157 0
-77 -23 -120 -85 -156 -57 -32 -146 -28 -196 11 -20 15 -44 27 -55 27 -10 0
-55 -21 -99 -48 -45 -26 -93 -53 -108 -61 -14 -8 -40 -26 -57 -40 l-31 -26 0
-245 c0 -247 6 -300 36 -300 8 0 15 -3 15 -7 0 -5 26 -21 58 -38 31 -16 64
-35 72 -41 8 -6 35 -23 60 -36 25 -14 74 -42 110 -63 121 -71 114 -69 157 -45
73 40 97 55 111 68 7 6 19 12 25 12 7 0 36 16 65 35 l52 36 0 72 c0 54 5 80
20 104 61 100 218 112 294 23 33 -40 39 -66 34 -140 -3 -49 -10 -66 -34 -91
-37 -40 -82 -59 -139 -59 -44 0 -116 28 -130 50 -13 21 -49 8 -162 -57 -181
-104 -162 -61 -169 -383 -5 -243 -7 -276 -22 -284 -9 -5 -65 -37 -124 -72 -58
-35 -109 -64 -111 -64 -13 0 -184 -105 -199 -122 -16 -17 -18 -42 -18 -172 0
-167 2 -173 61 -200 20 -9 49 -30 65 -47 25 -26 29 -39 32 -104 5 -90 -14
-128 -80 -165 -56 -32 -104 -35 -159 -12 -76 33 -109 85 -109 169 0 70 37 127
104 157 29 14 56 32 60 41 3 9 6 79 6 155 0 134 -10 190 -33 190 -6 0 -18 7
-27 15 -9 8 -35 25 -57 37 -23 13 -76 43 -119 68 -43 25 -94 54 -114 65 -19
11 -56 33 -82 49 l-48 28 0 266 c0 306 5 286 -95 343 -33 19 -68 39 -77 44 -9
6 -29 17 -45 26 -15 9 -76 44 -135 77 -60 34 -114 62 -122 62 -14 0 -64 -27
-206 -111 l-75 -45 -5 -81 c-5 -68 -10 -86 -34 -118 -34 -44 -77 -64 -143 -66
-58 -2 -89 10 -130 48 -73 68 -63 206 20 273 26 21 41 25 107 25 71 0 78 -2
118 -33 l41 -33 78 42 c98 53 183 108 205 132 15 16 17 50 17 285 1 202 4 269
14 275 28 18 256 148 302 172 27 15 52 30 55 34 3 4 31 20 62 36 63 33 59 33
163 -30 22 -13 51 -30 65 -37 14 -7 27 -15 30 -18 6 -6 42 -27 95 -54 22 -12
43 -25 47 -31 5 -7 8 -7 8 0 0 6 3 5 8 -1 4 -6 33 -25 66 -42 l58 -32 47 28
c81 48 105 61 151 86 80 43 90 58 90 134 1 89 22 128 89 162 59 30 112 32 172
5z"/>
<path d="M2154 2884 c-41 -18 -58 -34 -83 -74 -40 -66 -19 -150 51 -200 74
-54 160 -36 212 44 40 62 34 132 -15 187 -45 50 -112 68 -165 43z m88 -24 c87
-24 118 -135 57 -204 -72 -83 -204 -43 -216 65 -7 62 16 105 70 130 50 22 43
21 89 9z"/>
<path d="M1219 2708 c-19 -12 -59 -35 -89 -51 -30 -17 -93 -53 -140 -81 -47
-28 -97 -57 -112 -65 -15 -8 -41 -26 -57 -40 l-30 -26 -2 -140 c-1 -77 -1
-193 -1 -258 2 -114 3 -119 28 -142 15 -14 30 -22 34 -20 5 3 10 1 12 -3 4
-11 123 -82 136 -82 6 0 17 -6 24 -13 13 -13 87 -56 186 -108 l54 -28 40 22
c22 12 52 28 67 36 14 8 28 17 31 21 3 4 10 9 15 11 29 11 220 124 223 131 2
4 10 8 19 8 8 0 28 14 44 31 l29 31 0 249 0 248 -27 27 c-14 14 -43 34 -62 43
-20 9 -54 28 -76 42 -57 37 -222 133 -271 157 l-41 21 -34 -21z m308 -165
l173 -98 -1 -255 0 -255 -220 -126 -220 -127 -220 127 -219 126 0 255 0 255
218 126 217 126 50 -28 c28 -16 128 -73 222 -126z"/>
<path d="M1031 2472 c-63 -37 -119 -75 -125 -85 -13 -20 2 -50 27 -55 20 -4
264 136 272 155 8 23 -14 53 -38 52 -12 0 -73 -30 -136 -67z m135 20 c-3 -6
-36 -27 -74 -47 -37 -21 -86 -48 -109 -62 -23 -13 -44 -20 -47 -15 -4 8 57 47
188 119 39 22 54 24 42 5z"/>
<path d="M1320 2525 c-24 -29 -4 -50 120 -122 69 -40 130 -73 137 -73 17 0 43
40 36 56 -6 17 -241 154 -264 154 -9 0 -22 -7 -29 -15z m89 -47 c13 -10 27
-18 32 -18 16 0 142 -84 131 -88 -15 -5 -232 119 -226 129 6 10 32 1 63 -23z"/>
<path d="M2624 2050 c-33 -13 -83 -77 -90 -116 -9 -51 13 -109 58 -149 72 -66
177 -43 229 48 27 49 23 119 -11 165 -37 50 -127 76 -186 52z m126 -35 c36
-19 60 -62 60 -110 0 -76 -51 -125 -130 -125 -87 0 -148 106 -106 184 33 61
112 84 176 51z"/>
<path d="M1650 1849 c-36 -21 -130 -76 -209 -121 -79 -46 -150 -93 -158 -105
-21 -32 -21 -503 0 -534 14 -20 48 -42 112 -75 17 -8 44 -23 60 -34 17 -10 57
-33 90 -50 32 -18 70 -40 83 -51 14 -10 29 -19 34 -19 6 0 21 -9 35 -20 33
-26 51 -25 93 3 19 13 62 39 95 57 33 18 63 38 67 44 4 6 8 7 8 3 0 -4 19 5
43 20 23 15 64 39 90 53 27 14 64 38 83 53 l34 28 0 254 c0 251 0 255 -22 275
-24 22 -148 97 -253 153 -33 18 -62 35 -65 38 -12 15 -121 69 -137 68 -10 0
-47 -18 -83 -40z m320 -117 l205 -119 3 -254 2 -254 -221 -127 -220 -128 -220
127 -219 126 0 256 1 256 198 113 c110 62 207 119 217 127 12 8 24 10 34 4 8
-4 107 -62 220 -127z"/>
<path d="M1601 1692 c-133 -78 -146 -92 -113 -124 l23 -23 42 24 c230 130 248
146 215 179 -21 21 -51 11 -167 -56z m139 29 c0 -13 -199 -131 -221 -131 -23
0 8 23 109 80 118 66 112 63 112 51z"/>
<path d="M1392 1458 c-8 -8 -12 -54 -12 -154 0 -116 3 -145 16 -158 19 -19 25
-20 47 -3 16 11 17 30 15 167 l-3 155 -25 3 c-14 2 -31 -3 -38 -10z m38 -153
c0 -83 -4 -135 -10 -135 -6 0 -10 52 -10 135 0 83 4 135 10 135 6 0 10 -52 10
-135z"/>
<path d="M242 1783 c-74 -36 -104 -142 -60 -218 30 -52 102 -90 153 -81 65 13
135 96 135 161 0 53 -42 114 -98 144 -30 16 -92 13 -130 -6z m154 -46 c86 -79
35 -217 -81 -217 -75 0 -125 51 -125 127 1 73 53 123 128 123 34 0 49 -6 78
-33z"/>
<path d="M1680 407 c-40 -19 -60 -39 -81 -79 -53 -103 26 -225 143 -220 61 2
81 13 118 64 70 96 8 236 -107 244 -26 2 -59 -2 -73 -9z m126 -37 c45 -28 71
-95 55 -143 -30 -90 -141 -120 -210 -56 -110 103 26 278 155 199z"/>
</g>
</svg>
