<?xml version="1.0" standalone="no"?>
<!DOCTYPE svg PUBLIC "-//W3C//DTD SVG 20010904//EN"
 "http://www.w3.org/TR/2001/REC-SVG-20010904/DTD/svg10.dtd">
<svg version="1.0" xmlns="http://www.w3.org/2000/svg"
 width="300.000000pt" height="300.000000pt" viewBox="0 0 300.000000 300.000000"
 preserveAspectRatio="xMidYMid meet">
<metadata>
Created by potrace 1.10, written by Peter Selinger 2001-2011
</metadata>
<g transform="translate(0.000000,300.000000) scale(0.100000,-0.100000)"
fill="#33ff99" stroke="none">
<path d="M2635 2885 c-67 -36 -72 -44 -305 -425 -78 -129 -144 -237 -146 -238
-1 -2 -27 5 -56 16 -131 49 -316 53 -453 11 -39 -11 -105 -39 -147 -61 -63
-33 -78 -45 -78 -63 0 -13 5 -25 12 -27 7 -3 49 15 94 39 185 99 396 110 592
31 31 -12 57 -17 61 -12 5 5 93 146 196 314 103 168 199 317 213 333 50 53
142 56 205 7 35 -28 61 -100 53 -144 -8 -41 -43 -87 -315 -406 -105 -124 -191
-227 -191 -230 0 -3 20 -30 45 -60 103 -125 155 -274 155 -439 0 -120 -19
-202 -71 -310 -33 -68 -58 -101 -128 -171 -95 -96 -156 -135 -276 -176 -72
-25 -93 -28 -210 -28 -114 0 -140 4 -210 27 -106 35 -195 89 -271 162 -217
211 -271 516 -142 797 31 69 31 88 -3 88 -15 0 -29 -18 -54 -73 -18 -40 -36
-84 -40 -99 -6 -24 -13 -27 -83 -37 -41 -6 -116 -28 -166 -48 -79 -31 -181
-62 -210 -63 -4 0 -1 11 7 24 35 52 97 302 82 326 -17 28 -114 -23 -155 -81
l-24 -33 -12 70 c-14 83 -90 344 -105 359 -6 6 -15 6 -27 -1 -23 -15 -34 -114
-30 -282 2 -72 2 -132 0 -132 -2 0 -14 13 -28 29 -45 54 -134 77 -134 34 0
-26 41 -176 56 -206 9 -16 14 -30 12 -32 -2 -2 -24 3 -48 11 -70 24 -198 40
-218 28 -16 -10 -17 -70 -20 -790 -1 -428 0 -789 3 -802 l5 -22 1383 2 1382 3
3 725 c1 399 0 735 -3 748 -5 19 -12 22 -63 23 -31 0 -77 6 -101 12 l-44 12
-14 70 c-17 85 -87 234 -139 293 -20 24 -33 47 -28 50 6 4 46 50 90 102 44 52
145 171 223 264 79 94 150 186 159 205 37 90 5 198 -76 255 -35 25 -55 31
-110 34 -48 2 -76 -2 -97 -13z m-2114 -775 c2 -9 -2 -14 -10 -12 -7 1 -19 -3
-27 -9 -11 -9 -14 -6 -14 18 0 17 3 52 7 79 l7 49 17 -55 c9 -30 19 -62 20
-70z m8 -127 c13 -53 27 -133 30 -177 5 -71 8 -81 26 -84 14 -1 30 12 53 45
18 27 46 64 62 83 l31 35 -7 -40 c-12 -71 -45 -169 -70 -207 -28 -43 -48 -47
-148 -26 -49 9 -61 16 -82 47 -25 38 -80 189 -71 198 6 5 95 -110 104 -134 3
-7 16 -13 29 -13 l24 0 -5 153 c-3 83 -8 167 -10 185 -8 64 11 30 34 -65z
m237 -79 c-3 -9 -6 -20 -6 -26 0 -6 -9 -3 -20 7 -16 14 -17 20 -8 27 22 13 41
9 34 -8z m-414 -11 c4 -2 0 -12 -10 -21 -18 -19 -32 -11 -32 20 0 16 14 16 42
1z m126 -118 l-3 -30 -24 38 c-23 37 -23 39 -5 52 17 12 20 11 27 -8 4 -12 7
-35 5 -52z m144 44 c14 -4 13 -8 -8 -34 l-24 -30 0 45 c0 25 4 40 8 34 4 -7
15 -13 24 -15z m558 -139 c0 -11 -4 -20 -9 -20 -11 0 -22 26 -14 34 12 12 23
5 23 -14z m-775 -40 c18 -35 19 -35 -30 -14 -35 14 -36 16 -19 29 27 20 32 19
49 -15z m-57 -36 c138 -54 219 -68 333 -61 85 5 104 11 314 87 28 10 73 22
101 25 l51 7 -9 -63 c-9 -59 0 -189 18 -255 5 -20 0 -22 -72 -33 -43 -6 -118
-28 -168 -48 -120 -48 -185 -63 -278 -63 -95 0 -161 14 -252 52 -86 37 -145
54 -213 63 l-53 7 0 170 0 170 58 -7 c31 -4 108 -26 170 -51z m329 -32 c-26
-5 -31 3 -17 28 l12 22 12 -23 c10 -21 9 -24 -7 -27z m1960 13 c-1 0 -10 -7
-19 -14 -16 -12 -18 -10 -18 18 0 30 1 30 20 14 11 -9 18 -17 17 -18z m96 -41
l47 -6 0 -170 0 -171 -51 7 c-44 6 -137 32 -147 41 -2 2 6 34 18 72 12 37 24
108 27 156 l6 88 26 -5 c14 -3 47 -8 74 -12z m-1533 -233 c0 -5 3 -17 6 -26 6
-15 4 -15 -14 -4 -11 7 -18 19 -15 26 6 15 23 18 23 4z m-1087 -16 c4 -8 2
-17 -3 -20 -6 -4 -10 3 -10 14 0 25 6 27 13 6z m235 -91 c138 -54 219 -68 333
-61 86 5 99 9 318 89 30 11 84 22 120 25 l66 5 13 -36 c39 -106 178 -264 296
-335 357 -215 825 -99 1032 255 14 24 29 44 34 44 4 0 23 -7 43 -15 19 -8 67
-20 106 -26 l71 -12 0 -230 0 -229 -57 7 c-32 4 -108 26 -169 50 -138 55 -221
70 -337 61 -86 -6 -115 -14 -292 -81 -86 -33 -223 -44 -317 -26 -35 7 -99 28
-142 47 -174 75 -339 83 -503 24 -48 -18 -113 -42 -143 -53 -46 -18 -76 -22
-185 -21 l-130 0 -119 47 c-68 27 -151 52 -193 59 l-73 10 0 230 0 230 58 -7
c31 -4 108 -26 170 -51z m2220 21 c-2 -1 -13 -8 -25 -14 -22 -11 -22 -10 -11
14 9 19 14 22 25 13 7 -6 12 -12 11 -13z m234 -52 c-3 -16 -7 -22 -10 -15 -4
13 4 42 11 42 2 0 2 -12 -1 -27z m-2690 -415 c-9 -9 -12 -7 -12 12 0 19 3 21
12 12 9 -9 9 -15 0 -24z m978 -7 c0 -5 -7 -14 -16 -22 -13 -10 -17 -10 -24 1
-5 8 -6 18 -4 22 7 11 44 10 44 -1z m1203 -11 c-3 -12 -6 -19 -7 -18 -1 2 -8
11 -15 21 -12 15 -11 17 7 17 15 0 19 -5 15 -20z m-1996 -36 c170 -64 201 -74
241 -74 23 0 42 -4 42 -9 0 -5 -29 -36 -65 -70 -96 -90 -215 -144 -337 -154
l-58 -5 0 175 0 176 55 -7 c30 -3 85 -18 122 -32z m1115 -10 l96 -38 7 -45 c9
-61 38 -144 64 -179 l20 -29 -66 -12 c-37 -7 -81 -18 -99 -26 -31 -13 -37 -12
-86 16 -71 39 -188 76 -292 91 l-85 12 20 30 c11 17 43 76 70 130 l51 99 102
-5 c87 -5 116 -11 198 -44z m861 -7 c15 -28 50 -76 77 -106 27 -30 49 -55 47
-56 -11 -8 -179 17 -231 35 -63 21 -186 93 -186 109 0 4 35 19 78 34 91 31
106 34 152 36 32 1 37 -3 63 -52z m127 39 c30 -8 102 -32 160 -54 58 -22 131
-43 163 -47 l57 -6 0 -111 0 -110 -28 5 c-60 12 -147 51 -216 98 -77 51 -185
158 -211 209 -14 28 -14 30 2 30 10 0 43 -6 73 -14z m-1396 -68 c-101 -201
-224 -312 -358 -324 l-51 -5 -53 60 -53 61 33 28 c40 33 72 67 104 108 21 28
33 32 104 42 49 7 123 29 192 56 62 25 114 46 116 46 1 0 -14 -33 -34 -72z
m956 11 c0 -18 -2 -19 -15 -9 -15 12 -12 30 6 30 5 0 9 -10 9 -21z m-400 -15
c0 -17 -22 -14 -28 4 -2 7 3 12 12 12 9 0 16 -7 16 -16z m1248 -5 c-2 -6 -8
-10 -13 -10 -5 0 -11 4 -13 10 -2 6 4 11 13 11 9 0 15 -5 13 -11z m-2168 -7
c0 -4 -9 -13 -20 -20 -11 -7 -20 -10 -20 -8 0 2 -3 11 -6 20 -5 12 0 16 20 16
14 0 26 -3 26 -8z m1301 -18 c13 -14 44 -37 67 -51 l44 -26 -49 -21 c-73 -31
-161 -83 -227 -134 l-59 -45 -28 34 c-54 64 -88 124 -105 187 -10 34 -15 64
-13 66 3 3 25 0 49 -6 51 -11 222 -4 260 11 35 14 34 14 61 -15z m146 -91
c-30 -17 -42 -16 -28 1 8 10 9 16 1 21 -25 15 -7 22 20 7 l29 -17 -22 -12z
m371 -16 l21 -23 -21 -13 c-17 -11 -23 -10 -35 2 -9 9 -13 23 -8 36 8 27 16
26 43 -2z m-263 -27 c43 -11 111 -20 152 -20 72 0 73 -1 62 -21 -6 -12 -9 -38
-7 -59 l3 -38 -90 -4 c-91 -4 -137 -19 -181 -59 -20 -19 -21 -19 -75 44 -30
35 -67 74 -83 85 l-30 21 50 22 c27 12 63 27 79 35 38 17 29 17 120 -6z
m-1237 -18 c2 -7 -5 -12 -15 -12 -11 0 -25 -6 -32 -12 -8 -7 -6 0 4 15 18 28
35 31 43 9z m1563 -31 c46 -34 167 -86 222 -96 l37 -7 0 -94 0 -94 -112 0
-113 0 -22 33 c-34 49 -62 120 -69 170 -6 43 1 117 12 117 2 0 22 -13 45 -29z
m-2061 3 c0 -8 -5 -12 -10 -9 -6 4 -8 11 -5 16 9 14 15 11 15 -7z m1481 -30
c7 -8 -1 -8 -26 0 l-36 11 23 19 c22 18 23 18 27 0 2 -11 7 -24 12 -30z m-895
1 c49 -9 114 -23 144 -32 58 -17 140 -53 140 -62 0 -4 -20 -18 -44 -34 -24
-15 -67 -52 -95 -82 l-52 -55 -232 0 -232 0 -20 53 c-11 28 -21 55 -23 58 -1
3 20 11 48 17 75 17 152 58 202 107 23 24 50 43 59 44 9 1 56 -6 105 -14z
m604 -36 c8 -13 5 -15 -15 -11 -26 5 -29 10 -19 37 7 17 10 15 34 -26z m-1153
-24 c46 -54 112 -166 113 -192 0 -10 -56 -13 -245 -13 l-245 0 0 95 0 95 53 0
c62 0 153 22 205 50 20 10 45 19 54 20 9 0 38 -25 65 -55z m1422 30 c16 -8 58
-48 95 -89 l67 -74 -18 -36 -17 -36 -188 0 c-103 0 -188 2 -188 5 0 19 49 96
88 138 41 43 117 107 129 107 2 0 17 -7 32 -15z m-1806 -9 c3 -8 0 -19 -7 -25
-10 -9 -12 -6 -8 14 5 29 8 31 15 11z m2697 -22 c0 -8 -4 -12 -10 -9 -5 3 -10
13 -10 21 0 8 5 12 10 9 6 -3 10 -13 10 -21z m-1436 -19 c20 -15 20 -15 0 -30
-25 -19 -40 -19 -24 0 10 12 10 18 0 30 -16 19 -1 19 24 0z m1066 -10 c0 -22
-2 -24 -19 -13 -18 11 -18 13 -3 25 22 16 22 17 22 -12z m-777 -3 c15 -17 14
-22 -13 -78 -16 -32 -32 -67 -34 -76 -5 -16 -23 -18 -202 -18 l-197 0 23 25
c108 115 370 206 423 147z m-1049 -44 c-9 -14 -21 -9 -38 16 l-16 25 29 -17
c16 -9 27 -20 25 -24z m1116 27 c-7 -8 -14 -15 -15 -15 -2 0 -5 7 -9 15 -4 10
1 15 16 15 17 0 18 -2 8 -15z m686 -19 c1 0 14 -28 30 -61 15 -33 30 -63 32
-67 2 -5 -80 -8 -182 -8 -102 0 -186 3 -186 8 0 19 53 82 85 102 43 26 114 40
175 33 25 -3 45 -6 46 -7z m-288 -46 c-15 -23 -28 -26 -28 -6 0 8 8 17 18 19
9 3 18 5 20 6 1 0 -3 -8 -10 -19z m-919 -111 c1 -3 -10 -4 -24 -1 -25 4 -25 5
-8 24 16 18 18 18 24 1 4 -10 8 -21 8 -24z m1316 21 c18 -20 17 -20 -8 -20
-20 0 -24 4 -20 20 3 11 6 20 8 20 1 0 10 -9 20 -20z m-425 -22 c0 -3 -9 -4
-20 -1 -16 4 -18 8 -9 20 10 11 14 11 20 1 5 -7 9 -16 9 -20z m-1990 12 c0 -5
-2 -10 -4 -10 -3 0 -8 5 -11 10 -3 6 -1 10 4 10 6 0 11 -4 11 -10z m545 0 c3
-5 -3 -10 -15 -10 -12 0 -18 5 -15 10 3 6 10 10 15 10 5 0 12 -4 15 -10z m994
-11 c-16 -10 -23 -4 -14 10 3 6 11 8 17 5 6 -4 5 -9 -3 -15z"/>
<path d="M1114 1135 c-10 -26 4 -45 34 -45 33 0 57 22 48 45 -7 20 -75 20 -82
0z"/>
<path d="M156 1104 c-10 -25 13 -45 48 -42 26 2 31 7 31 28 0 22 -5 25 -36 28
-27 2 -38 -1 -43 -14z"/>
<path d="M807 1086 c-4 -9 1 -22 9 -31 28 -28 79 -13 72 21 -4 25 -72 33 -81
10z"/>
<path d="M2670 1045 c-20 -24 -4 -45 35 -45 23 0 38 6 41 15 8 21 -14 45 -41
45 -12 0 -28 -7 -35 -15z"/>
<path d="M540 1015 c-20 -24 -4 -45 35 -45 23 0 38 6 41 15 8 21 -14 45 -41
45 -12 0 -28 -7 -35 -15z"/>
<path d="M1290 955 c-20 -24 -4 -45 35 -45 23 0 38 6 41 15 8 21 -14 45 -41
45 -12 0 -28 -7 -35 -15z"/>
<path d="M310 925 c-7 -8 -10 -22 -6 -30 9 -24 80 -16 84 9 7 34 -54 50 -78
21z"/>
<path d="M961 907 c-21 -26 -2 -48 38 -45 31 3 36 6 36 28 0 21 -5 26 -31 28
-18 2 -36 -3 -43 -11z"/>
<path d="M2564 875 c-12 -30 4 -46 43 -43 28 2 39 8 41 22 2 10 -2 22 -10 27
-22 14 -68 10 -74 -6z"/>
<path d="M684 825 c-10 -26 4 -45 34 -45 33 0 57 22 48 45 -7 20 -75 20 -82 0z"/>
<path d="M2399 2833 c-9 -10 -55 -82 -103 -161 -87 -140 -97 -172 -57 -172 27
0 218 307 204 329 -14 22 -28 23 -44 4z"/>
<path d="M2144 2425 c-13 -20 -14 -28 -4 -40 7 -8 18 -15 25 -15 18 0 48 48
41 66 -9 22 -44 16 -62 -11z"/>
<path d="M1735 2095 c-72 -20 -183 -79 -237 -125 -65 -56 -139 -171 -169 -261
-33 -102 -34 -252 -2 -354 75 -239 303 -405 556 -405 160 0 291 55 408 170
116 114 172 247 173 410 1 264 -182 499 -439 565 -72 18 -222 18 -290 0z m269
-56 c118 -23 247 -113 318 -223 21 -32 38 -62 38 -65 0 -3 -25 -4 -55 -3 -80
5 -195 -21 -325 -75 l-115 -48 -160 0 c-158 0 -161 1 -242 33 l-82 33 20 47
c41 99 143 209 238 256 122 61 221 73 365 45z m396 -309 c0 -13 -5 -18 -15
-14 -16 7 -19 17 -8 27 12 13 23 7 23 -13z m-1043 -77 c-17 -18 -22 -8 -11 22
5 12 10 13 17 6 8 -8 6 -16 -6 -28z m1040 -10 c15 -86 8 -203 -16 -274 l-22
-66 -98 -6 c-99 -5 -138 -16 -336 -92 -94 -37 -265 -46 -378 -21 -73 17 -77
19 -107 66 -53 82 -73 153 -78 273 -2 59 -2 107 1 107 3 0 48 -14 99 -32 76
-25 114 -32 206 -36 139 -6 202 6 351 65 136 53 169 60 283 62 l87 1 8 -47z
m-33 -384 c-12 -25 -18 -29 -25 -18 -5 8 -9 17 -9 20 0 5 34 25 48 28 1 1 -5
-13 -14 -30z m-75 -60 c-68 -86 -179 -155 -290 -179 -33 -8 -94 -11 -150 -8
-106 6 -173 27 -256 82 -49 32 -71 30 -40 -4 12 -14 3 -8 -51 36 -13 10 -28
27 -33 37 -9 16 -8 16 33 0 24 -9 48 -24 54 -32 16 -20 189 -27 280 -12 37 7
115 32 173 56 58 24 133 48 166 54 58 11 136 18 144 14 2 -1 -11 -21 -30 -44z"/>
</g>
</svg>
